<svg xmlns="http://www.w3.org/2000/svg" viewBox="0 0 200 200" width="100%" height="100%">
    <path fill="none" stroke="black" stroke-width="1" d="M 190.000 100.000 L 189.926 100.600 L 189.704 101.197 L 189.334 101.788 L 188.818 102.370 L 188.155 102.941 L 187.348 103.498 L 186.397 104.037 L 185.305 104.556 L 184.073 105.053 L 182.704 105.525 L 181.200 105.968 L 179.564 106.382 L 177.799 106.763 L 175.907 107.109 L 173.893 107.418 L 171.761 107.688 L 169.513 107.916 L 167.154 108.102 L 164.688 108.242 L 162.121 108.336 L 159.455 108.383 L 156.697 108.380 L 153.850 108.327 L 150.921 108.222 L 147.915 108.065 L 144.836 107.854 L 141.691 107.590 L 138.484 107.272 L 135.223 106.899 L 131.911 106.472 L 128.557 105.990 L 125.164 105.454 L 121.740 104.864 L 118.290 104.220 L 114.821 103.524 L 111.338 102.776 L 107.848 101.977 L 104.357 101.129 L 100.870 100.232 L 97.395 99.288 L 93.936 98.299 L 90.500 97.267 L 87.093 96.193 L 83.721 95.080 L 80.390 93.931 L 77.104 92.746 L 73.870 91.529 L 70.693 90.283 L 67.579 89.010 L 64.532 87.712 L 61.558 86.394 L 58.661 85.058 L 55.847 83.707 L 53.120 82.344 L 50.483 80.973 L 47.943 79.598 L 45.501 78.220 L 43.163 76.845 L 40.932 75.475 L 38.811 74.115 L 36.803 72.767 L 34.911 71.436 L 33.138 70.124 L 31.487 68.837 L 29.960 67.576 L 28.558 66.347 L 27.283 65.152 L 26.138 63.995 L 25.123 62.880 L 24.238 61.810 L 23.486 60.789 L 22.866 59.819 L 22.379 58.905 L 22.024 58.049 L 21.802 57.254 L 21.712 56.524 L 21.753 55.862 L 21.924 55.269 L 22.224 54.749 L 22.651 54.305 L 23.205 53.938 L 23.882 53.651 L 24.681 53.446 L 25.600 53.326 L 26.636 53.290 L 27.785 53.342 L 29.046 53.483 L 30.415 53.714 L 31.888 54.036 L 33.463 54.450 L 35.135 54.956 L 36.900 55.555 L 38.755 56.248 L 40.696 57.034 L 42.718 57.913 L 44.817 58.886 L 46.988 59.951 L 49.227 61.108 L 51.529 62.355 L 53.889 63.693 L 56.302 65.118 L 58.764 66.631 L 61.270 68.228 L 63.813 69.909 L 66.390 71.671 L 68.996 73.511 L 71.625 75.428 L 74.271 77.418 L 76.931 79.478 L 79.599 81.606 L 82.270 83.798 L 84.938 86.052 L 87.600 88.362 L 90.250 90.726 L 92.883 93.140 L 95.495 95.599 L 98.081 98.100 L 100.636 100.638 L 103.156 103.209 L 105.636 105.808 L 108.073 108.431 L 110.462 111.073 L 112.800 113.729 L 115.082 116.395 L 117.305 119.066 L 119.466 121.736 L 121.561 124.400 L 123.586 127.054 L 125.540 129.692 L 127.419 132.310 L 129.220 134.902 L 130.942 137.463 L 132.581 139.988 L 134.136 142.473 L 135.606 144.911 L 136.987 147.298 L 138.280 149.630 L 139.482 151.901 L 140.593 154.106 L 141.612 156.242 L 142.538 158.303 L 143.371 160.285 L 144.110 162.183 L 144.756 163.994 L 145.309 165.713 L 145.769 167.337 L 146.136 168.862 L 146.413 170.283 L 146.598 171.598 L 146.695 172.804 L 146.703 173.897 L 146.625 174.874 L 146.462 175.733 L 146.215 176.472 L 145.888 177.087 L 145.482 177.578 L 145.000 177.942 L 144.444 178.178 L 143.816 178.284 L 143.119 178.260 L 142.356 178.103 L 141.531 177.815 L 140.645 177.394 L 139.703 176.841 L 138.707 176.154 L 137.661 175.336 L 136.568 174.386 L 135.431 173.306 L 134.255 172.095 L 133.042 170.757 L 131.797 169.292 L 130.523 167.702 L 129.223 165.990 L 127.901 164.158 L 126.561 162.208 L 125.206 160.143 L 123.841 157.966 L 122.468 155.681 L 121.091 153.291 L 119.714 150.799 L 118.340 148.210 L 116.973 145.528 L 115.616 142.756 L 114.272 139.900 L 112.944 136.964 L 111.636 133.953 L 110.351 130.872 L 109.091 127.726 L 107.859 124.520 L 106.658 121.259 L 105.490 117.950 L 104.358 114.597 L 103.265 111.207 L 102.212 107.785 L 101.201 104.337 L 100.235 100.869 L 99.314 97.388 L 98.441 93.898 L 97.617 90.406 L 96.843 86.919 L 96.121 83.442 L 95.451 79.982 L 94.834 76.544 L 94.271 73.135 L 93.762 69.761 L 93.307 66.427 L 92.907 63.140 L 92.562 59.905 L 92.271 56.729 L 92.034 53.616 L 91.850 50.573 L 91.719 47.604 L 91.640 44.716 L 91.612 41.913 L 91.634 39.200 L 91.705 36.583 L 91.822 34.066 L 91.986 31.653 L 92.193 29.349 L 92.442 27.158 L 92.732 25.085 L 93.060 23.132 L 93.423 21.303 L 93.821 19.602 L 94.250 18.031 L 94.708 16.594 L 95.192 15.294 L 95.701 14.131 L 96.230 13.110 L 96.779 12.231 L 97.343 11.495 L 97.920 10.906 L 98.507 10.463 L 99.101 10.167 L 99.700 10.019 L 100.300 10.019 L 100.899 10.167 L 101.493 10.463 L 102.080 10.906 L 102.657 11.495 L 103.221 12.231 L 103.770 13.110 L 104.299 14.131 L 104.808 15.294 L 105.292 16.594 L 105.750 18.031 L 106.179 19.602 L 106.577 21.303 L 106.940 23.132 L 107.268 25.085 L 107.558 27.158 L 107.807 29.349 L 108.014 31.653 L 108.178 34.066 L 108.295 36.583 L 108.366 39.200 L 108.388 41.913 L 108.360 44.716 L 108.281 47.604 L 108.150 50.573 L 107.966 53.616 L 107.729 56.729 L 107.438 59.905 L 107.093 63.140 L 106.693 66.427 L 106.238 69.761 L 105.729 73.135 L 105.166 76.544 L 104.549 79.982 L 103.879 83.442 L 103.157 86.919 L 102.383 90.406 L 101.559 93.898 L 100.686 97.388 L 99.765 100.869 L 98.799 104.337 L 97.788 107.785 L 96.735 111.207 L 95.642 114.597 L 94.510 117.950 L 93.342 121.259 L 92.141 124.520 L 90.909 127.726 L 89.649 130.872 L 88.364 133.953 L 87.056 136.964 L 85.728 139.900 L 84.384 142.756 L 83.027 145.528 L 81.660 148.210 L 80.286 150.799 L 78.909 153.291 L 77.532 155.681 L 76.159 157.966 L 74.794 160.143 L 73.439 162.208 L 72.099 164.158 L 70.777 165.990 L 69.477 167.702 L 68.203 169.292 L 66.958 170.757 L 65.745 172.095 L 64.569 173.306 L 63.432 174.386 L 62.339 175.336 L 61.293 176.154 L 60.297 176.841 L 59.355 177.394 L 58.469 177.815 L 57.644 178.103 L 56.881 178.260 L 56.184 178.284 L 55.556 178.178 L 55.000 177.942 L 54.518 177.578 L 54.112 177.087 L 53.785 176.472 L 53.538 175.733 L 53.375 174.874 L 53.297 173.897 L 53.305 172.804 L 53.402 171.598 L 53.587 170.283 L 53.864 168.862 L 54.231 167.337 L 54.691 165.713 L 55.244 163.994 L 55.890 162.183 L 56.629 160.285 L 57.462 158.303 L 58.388 156.242 L 59.407 154.106 L 60.518 151.901 L 61.720 149.630 L 63.013 147.298 L 64.394 144.911 L 65.864 142.473 L 67.419 139.988 L 69.058 137.463 L 70.780 134.902 L 72.581 132.310 L 74.460 129.692 L 76.414 127.054 L 78.439 124.400 L 80.534 121.736 L 82.695 119.066 L 84.918 116.395 L 87.200 113.729 L 89.538 111.073 L 91.927 108.431 L 94.364 105.808 L 96.844 103.209 L 99.364 100.638 L 101.919 98.100 L 104.505 95.599 L 107.117 93.140 L 109.750 90.726 L 112.400 88.362 L 115.062 86.052 L 117.730 83.798 L 120.401 81.606 L 123.069 79.478 L 125.729 77.418 L 128.375 75.428 L 131.004 73.511 L 133.610 71.671 L 136.187 69.909 L 138.730 68.228 L 141.236 66.631 L 143.698 65.118 L 146.111 63.693 L 148.471 62.355 L 150.773 61.108 L 153.012 59.951 L 155.183 58.886 L 157.282 57.913 L 159.304 57.034 L 161.245 56.248 L 163.100 55.555 L 164.865 54.956 L 166.537 54.450 L 168.112 54.036 L 169.585 53.714 L 170.954 53.483 L 172.215 53.342 L 173.364 53.290 L 174.400 53.326 L 175.319 53.446 L 176.118 53.651 L 176.795 53.938 L 177.349 54.305 L 177.776 54.749 L 178.076 55.269 L 178.247 55.862 L 178.288 56.524 L 178.198 57.254 L 177.976 58.049 L 177.621 58.905 L 177.134 59.819 L 176.514 60.789 L 175.762 61.810 L 174.877 62.880 L 173.862 63.995 L 172.717 65.152 L 171.442 66.347 L 170.040 67.576 L 168.513 68.837 L 166.862 70.124 L 165.089 71.436 L 163.197 72.767 L 161.189 74.115 L 159.068 75.475 L 156.837 76.845 L 154.499 78.220 L 152.057 79.598 L 149.517 80.973 L 146.880 82.344 L 144.153 83.707 L 141.339 85.058 L 138.442 86.394 L 135.468 87.712 L 132.421 89.010 L 129.307 90.283 L 126.130 91.529 L 122.896 92.746 L 119.610 93.931 L 116.279 95.080 L 112.907 96.193 L 109.500 97.267 L 106.064 98.299 L 102.605 99.288 L 99.130 100.232 L 95.643 101.129 L 92.152 101.977 L 88.662 102.776 L 85.179 103.524 L 81.710 104.220 L 78.260 104.864 L 74.836 105.454 L 71.443 105.990 L 68.089 106.472 L 64.777 106.899 L 61.516 107.272 L 58.309 107.590 L 55.164 107.854 L 52.085 108.065 L 49.079 108.222 L 46.150 108.327 L 43.303 108.380 L 40.545 108.383 L 37.879 108.336 L 35.312 108.242 L 32.846 108.102 L 30.487 107.916 L 28.239 107.688 L 26.107 107.418 L 24.093 107.109 L 22.201 106.763 L 20.436 106.382 L 18.800 105.968 L 17.296 105.525 L 15.927 105.053 L 14.695 104.556 L 13.603 104.037 L 12.652 103.498 L 11.845 102.941 L 11.182 102.370 L 10.666 101.788 L 10.296 101.197 L 10.074 100.600 L 10.000 100.000 L 10.074 99.400 L 10.296 98.803 L 10.666 98.212 L 11.182 97.630 L 11.845 97.059 L 12.652 96.502 L 13.603 95.963 L 14.695 95.444 L 15.927 94.947 L 17.296 94.475 L 18.800 94.032 L 20.436 93.618 L 22.201 93.237 L 24.093 92.891 L 26.107 92.582 L 28.239 92.312 L 30.487 92.084 L 32.846 91.898 L 35.312 91.758 L 37.879 91.664 L 40.545 91.617 L 43.303 91.620 L 46.150 91.673 L 49.079 91.778 L 52.085 91.935 L 55.164 92.146 L 58.309 92.410 L 61.516 92.728 L 64.777 93.101 L 68.089 93.528 L 71.443 94.010 L 74.836 94.546 L 78.260 95.136 L 81.710 95.780 L 85.179 96.476 L 88.662 97.224 L 92.152 98.023 L 95.643 98.871 L 99.130 99.768 L 102.605 100.712 L 106.064 101.701 L 109.500 102.733 L 112.907 103.807 L 116.279 104.920 L 119.610 106.069 L 122.896 107.254 L 126.130 108.471 L 129.307 109.717 L 132.421 110.990 L 135.468 112.288 L 138.442 113.606 L 141.339 114.942 L 144.153 116.293 L 146.880 117.656 L 149.517 119.027 L 152.057 120.402 L 154.499 121.780 L 156.837 123.155 L 159.068 124.525 L 161.189 125.885 L 163.197 127.233 L 165.089 128.564 L 166.862 129.876 L 168.513 131.163 L 170.040 132.424 L 171.442 133.653 L 172.717 134.848 L 173.862 136.005 L 174.877 137.120 L 175.762 138.190 L 176.514 139.211 L 177.134 140.181 L 177.621 141.095 L 177.976 141.951 L 178.198 142.746 L 178.288 143.476 L 178.247 144.138 L 178.076 144.731 L 177.776 145.251 L 177.349 145.695 L 176.795 146.062 L 176.118 146.349 L 175.319 146.554 L 174.400 146.674 L 173.364 146.710 L 172.215 146.658 L 170.954 146.517 L 169.585 146.286 L 168.112 145.964 L 166.537 145.550 L 164.865 145.044 L 163.100 144.445 L 161.245 143.752 L 159.304 142.966 L 157.282 142.087 L 155.183 141.114 L 153.012 140.049 L 150.773 138.892 L 148.471 137.645 L 146.111 136.307 L 143.698 134.882 L 141.236 133.369 L 138.730 131.772 L 136.187 130.091 L 133.610 128.329 L 131.004 126.489 L 128.375 124.572 L 125.729 122.582 L 123.069 120.522 L 120.401 118.394 L 117.730 116.202 L 115.062 113.948 L 112.400 111.638 L 109.750 109.274 L 107.117 106.860 L 104.505 104.401 L 101.919 101.900 L 99.364 99.362 L 96.844 96.791 L 94.364 94.192 L 91.927 91.569 L 89.538 88.927 L 87.200 86.271 L 84.918 83.605 L 82.695 80.934 L 80.534 78.264 L 78.439 75.600 L 76.414 72.946 L 74.460 70.308 L 72.581 67.690 L 70.780 65.098 L 69.058 62.537 L 67.419 60.012 L 65.864 57.527 L 64.394 55.089 L 63.013 52.702 L 61.720 50.370 L 60.518 48.099 L 59.407 45.894 L 58.388 43.758 L 57.462 41.697 L 56.629 39.715 L 55.890 37.817 L 55.244 36.006 L 54.691 34.287 L 54.231 32.663 L 53.864 31.138 L 53.587 29.717 L 53.402 28.402 L 53.305 27.196 L 53.297 26.103 L 53.375 25.126 L 53.538 24.267 L 53.785 23.528 L 54.112 22.913 L 54.518 22.422 L 55.000 22.058 L 55.556 21.822 L 56.184 21.716 L 56.881 21.740 L 57.644 21.897 L 58.469 22.185 L 59.355 22.606 L 60.297 23.159 L 61.293 23.846 L 62.339 24.664 L 63.432 25.614 L 64.569 26.694 L 65.745 27.905 L 66.958 29.243 L 68.203 30.708 L 69.477 32.298 L 70.777 34.010 L 72.099 35.842 L 73.439 37.792 L 74.794 39.857 L 76.159 42.034 L 77.532 44.319 L 78.909 46.709 L 80.286 49.201 L 81.660 51.790 L 83.027 54.472 L 84.384 57.244 L 85.728 60.100 L 87.056 63.036 L 88.364 66.047 L 89.649 69.128 L 90.909 72.274 L 92.141 75.480 L 93.342 78.741 L 94.510 82.050 L 95.642 85.403 L 96.735 88.793 L 97.788 92.215 L 98.799 95.663 L 99.765 99.131 L 100.686 102.612 L 101.559 106.102 L 102.383 109.594 L 103.157 113.081 L 103.879 116.558 L 104.549 120.018 L 105.166 123.456 L 105.729 126.865 L 106.238 130.239 L 106.693 133.573 L 107.093 136.860 L 107.438 140.095 L 107.729 143.271 L 107.966 146.384 L 108.150 149.427 L 108.281 152.396 L 108.360 155.284 L 108.388 158.087 L 108.366 160.800 L 108.295 163.417 L 108.178 165.934 L 108.014 168.347 L 107.807 170.651 L 107.558 172.842 L 107.268 174.915 L 106.940 176.868 L 106.577 178.697 L 106.179 180.398 L 105.750 181.969 L 105.292 183.406 L 104.808 184.706 L 104.299 185.869 L 103.770 186.890 L 103.221 187.769 L 102.657 188.505 L 102.080 189.094 L 101.493 189.537 L 100.899 189.833 L 100.300 189.981 L 99.700 189.981 L 99.101 189.833 L 98.507 189.537 L 97.920 189.094 L 97.343 188.505 L 96.779 187.769 L 96.230 186.890 L 95.701 185.869 L 95.192 184.706 L 94.708 183.406 L 94.250 181.969 L 93.821 180.398 L 93.423 178.697 L 93.060 176.868 L 92.732 174.915 L 92.442 172.842 L 92.193 170.651 L 91.986 168.347 L 91.822 165.934 L 91.705 163.417 L 91.634 160.800 L 91.612 158.087 L 91.640 155.284 L 91.719 152.396 L 91.850 149.427 L 92.034 146.384 L 92.271 143.271 L 92.562 140.095 L 92.907 136.860 L 93.307 133.573 L 93.762 130.239 L 94.271 126.865 L 94.834 123.456 L 95.451 120.018 L 96.121 116.558 L 96.843 113.081 L 97.617 109.594 L 98.441 106.102 L 99.314 102.612 L 100.235 99.131 L 101.201 95.663 L 102.212 92.215 L 103.265 88.793 L 104.358 85.403 L 105.490 82.050 L 106.658 78.741 L 107.859 75.480 L 109.091 72.274 L 110.351 69.128 L 111.636 66.047 L 112.944 63.036 L 114.272 60.100 L 115.616 57.244 L 116.973 54.472 L 118.340 51.790 L 119.714 49.201 L 121.091 46.709 L 122.468 44.319 L 123.841 42.034 L 125.206 39.857 L 126.561 37.792 L 127.901 35.842 L 129.223 34.010 L 130.523 32.298 L 131.797 30.708 L 133.042 29.243 L 134.255 27.905 L 135.431 26.694 L 136.568 25.614 L 137.661 24.664 L 138.707 23.846 L 139.703 23.159 L 140.645 22.606 L 141.531 22.185 L 142.356 21.897 L 143.119 21.740 L 143.816 21.716 L 144.444 21.822 L 145.000 22.058 L 145.482 22.422 L 145.888 22.913 L 146.215 23.528 L 146.462 24.267 L 146.625 25.126 L 146.703 26.103 L 146.695 27.196 L 146.598 28.402 L 146.413 29.717 L 146.136 31.138 L 145.769 32.663 L 145.309 34.287 L 144.756 36.006 L 144.110 37.817 L 143.371 39.715 L 142.538 41.697 L 141.612 43.758 L 140.593 45.894 L 139.482 48.099 L 138.280 50.370 L 136.987 52.702 L 135.606 55.089 L 134.136 57.527 L 132.581 60.012 L 130.942 62.537 L 129.220 65.098 L 127.419 67.690 L 125.540 70.308 L 123.586 72.946 L 121.561 75.600 L 119.466 78.264 L 117.305 80.934 L 115.082 83.605 L 112.800 86.271 L 110.462 88.927 L 108.073 91.569 L 105.636 94.192 L 103.156 96.791 L 100.636 99.362 L 98.081 101.900 L 95.495 104.401 L 92.883 106.860 L 90.250 109.274 L 87.600 111.638 L 84.938 113.948 L 82.270 116.202 L 79.599 118.394 L 76.931 120.522 L 74.271 122.582 L 71.625 124.572 L 68.996 126.489 L 66.390 128.329 L 63.813 130.091 L 61.270 131.772 L 58.764 133.369 L 56.302 134.882 L 53.889 136.307 L 51.529 137.645 L 49.227 138.892 L 46.988 140.049 L 44.817 141.114 L 42.718 142.087 L 40.696 142.966 L 38.755 143.752 L 36.900 144.445 L 35.135 145.044 L 33.463 145.550 L 31.888 145.964 L 30.415 146.286 L 29.046 146.517 L 27.785 146.658 L 26.636 146.710 L 25.600 146.674 L 24.681 146.554 L 23.882 146.349 L 23.205 146.062 L 22.651 145.695 L 22.224 145.251 L 21.924 144.731 L 21.753 144.138 L 21.712 143.476 L 21.802 142.746 L 22.024 141.951 L 22.379 141.095 L 22.866 140.181 L 23.486 139.211 L 24.238 138.190 L 25.123 137.120 L 26.138 136.005 L 27.283 134.848 L 28.558 133.653 L 29.960 132.424 L 31.487 131.163 L 33.138 129.876 L 34.911 128.564 L 36.803 127.233 L 38.811 125.885 L 40.932 124.525 L 43.163 123.155 L 45.501 121.780 L 47.943 120.402 L 50.483 119.027 L 53.120 117.656 L 55.847 116.293 L 58.661 114.942 L 61.558 113.606 L 64.532 112.288 L 67.579 110.990 L 70.693 109.717 L 73.870 108.471 L 77.104 107.254 L 80.390 106.069 L 83.721 104.920 L 87.093 103.807 L 90.500 102.733 L 93.936 101.701 L 97.395 100.712 L 100.870 99.768 L 104.357 98.871 L 107.848 98.023 L 111.338 97.224 L 114.821 96.476 L 118.290 95.780 L 121.740 95.136 L 125.164 94.546 L 128.557 94.010 L 131.911 93.528 L 135.223 93.101 L 138.484 92.728 L 141.691 92.410 L 144.836 92.146 L 147.915 91.935 L 150.921 91.778 L 153.850 91.673 L 156.697 91.620 L 159.455 91.617 L 162.121 91.664 L 164.688 91.758 L 167.154 91.898 L 169.513 92.084 L 171.761 92.312 L 173.893 92.582 L 175.907 92.891 L 177.799 93.237 L 179.564 93.618 L 181.200 94.032 L 182.704 94.475 L 184.073 94.947 L 185.305 95.444 L 186.397 95.963 L 187.348 96.502 L 188.155 97.059 L 188.818 97.630 L 189.334 98.212 L 189.704 98.803 L 189.926 99.400 L 190.000 100.000 L 189.926 100.600 L 189.704 101.197 L 189.334 101.788 L 188.818 102.370 L 188.155 102.941 L 187.348 103.498 L 186.397 104.037 L 185.305 104.556 L 184.073 105.053 L 182.704 105.525 L 181.200 105.968 L 179.564 106.382 L 177.799 106.763 L 175.907 107.109 L 173.893 107.418 L 171.761 107.688 L 169.513 107.916 L 167.154 108.102 L 164.688 108.242 L 162.121 108.336 L 159.455 108.383 L 156.697 108.380 L 153.850 108.327 L 150.921 108.222 L 147.915 108.065 L 144.836 107.854 L 141.691 107.590 L 138.484 107.272 L 135.223 106.899 L 131.911 106.472 L 128.557 105.990 L 125.164 105.454 L 121.740 104.864 L 118.290 104.220 L 114.821 103.524 L 111.338 102.776 L 107.848 101.977 L 104.357 101.129 L 100.870 100.232 L 97.395 99.288 L 93.936 98.299 L 90.500 97.267 L 87.093 96.193 L 83.721 95.080 L 80.390 93.931 L 77.104 92.746 L 73.870 91.529 L 70.693 90.283 L 67.579 89.010 L 64.532 87.712 L 61.558 86.394 L 58.661 85.058 L 55.847 83.707 L 53.120 82.344 L 50.483 80.973 L 47.943 79.598 L 45.501 78.220 L 43.163 76.845 L 40.932 75.475 L 38.811 74.115 L 36.803 72.767 L 34.911 71.436 L 33.138 70.124 L 31.487 68.837 L 29.960 67.576 L 28.558 66.347 L 27.283 65.152 L 26.138 63.995 L 25.123 62.880 L 24.238 61.810 L 23.486 60.789 L 22.866 59.819 L 22.379 58.905 L 22.024 58.049 L 21.802 57.254 L 21.712 56.524 L 21.753 55.862 L 21.924 55.269 L 22.224 54.749 L 22.651 54.305 L 23.205 53.938 L 23.882 53.651 L 24.681 53.446 L 25.600 53.326 L 26.636 53.290 L 27.785 53.342 L 29.046 53.483 L 30.415 53.714 L 31.888 54.036 L 33.463 54.450 L 35.135 54.956 L 36.900 55.555 L 38.755 56.248 L 40.696 57.034 L 42.718 57.913 L 44.817 58.886 L 46.988 59.951 L 49.227 61.108 L 51.529 62.355 L 53.889 63.693 L 56.302 65.118 L 58.764 66.631 L 61.270 68.228 L 63.813 69.909 L 66.390 71.671 L 68.996 73.511 L 71.625 75.428 L 74.271 77.418 L 76.931 79.478 L 79.599 81.606 L 82.270 83.798 L 84.938 86.052 L 87.600 88.362 L 90.250 90.726 L 92.883 93.140 L 95.495 95.599 L 98.081 98.100 L 100.636 100.638 L 103.156 103.209 L 105.636 105.808 L 108.073 108.431 L 110.462 111.073 L 112.800 113.729 L 115.082 116.395 L 117.305 119.066 L 119.466 121.736 L 121.561 124.400 L 123.586 127.054 L 125.540 129.692 L 127.419 132.310 L 129.220 134.902 L 130.942 137.463 L 132.581 139.988 L 134.136 142.473 L 135.606 144.911 L 136.987 147.298 L 138.280 149.630 L 139.482 151.901 L 140.593 154.106 L 141.612 156.242 L 142.538 158.303 L 143.371 160.285 L 144.110 162.183 L 144.756 163.994 L 145.309 165.713 L 145.769 167.337 L 146.136 168.862 L 146.413 170.283 L 146.598 171.598 L 146.695 172.804 L 146.703 173.897 L 146.625 174.874 L 146.462 175.733 L 146.215 176.472 L 145.888 177.087 L 145.482 177.578 L 145.000 177.942 L 144.444 178.178 L 143.816 178.284 L 143.119 178.260 L 142.356 178.103 L 141.531 177.815 L 140.645 177.394 L 139.703 176.841 L 138.707 176.154 L 137.661 175.336 L 136.568 174.386 L 135.431 173.306 L 134.255 172.095 L 133.042 170.757 L 131.797 169.292 L 130.523 167.702 L 129.223 165.990 L 127.901 164.158 L 126.561 162.208 L 125.206 160.143 L 123.841 157.966 L 122.468 155.681 L 121.091 153.291 L 119.714 150.799 L 118.340 148.210 L 116.973 145.528 L 115.616 142.756 L 114.272 139.900 L 112.944 136.964 L 111.636 133.953 L 110.351 130.872 L 109.091 127.726 L 107.859 124.520 L 106.658 121.259 L 105.490 117.950 L 104.358 114.597 L 103.265 111.207 L 102.212 107.785 L 101.201 104.337 L 100.235 100.869 L 99.314 97.388 L 98.441 93.898 L 97.617 90.406 L 96.843 86.919 L 96.121 83.442 L 95.451 79.982 L 94.834 76.544 L 94.271 73.135 L 93.762 69.761 L 93.307 66.427 L 92.907 63.140 L 92.562 59.905 L 92.271 56.729 L 92.034 53.616 L 91.850 50.573 L 91.719 47.604 L 91.640 44.716 L 91.612 41.913 L 91.634 39.200 L 91.705 36.583 L 91.822 34.066 L 91.986 31.653 L 92.193 29.349 L 92.442 27.158 L 92.732 25.085 L 93.060 23.132 L 93.423 21.303 L 93.821 19.602 L 94.250 18.031 L 94.708 16.594 L 95.192 15.294 L 95.701 14.131 L 96.230 13.110 L 96.779 12.231 L 97.343 11.495 L 97.920 10.906 L 98.507 10.463 L 99.101 10.167 L 99.700 10.019 L 100.300 10.019 L 100.899 10.167 L 101.493 10.463 L 102.080 10.906 L 102.657 11.495 L 103.221 12.231 L 103.770 13.110 L 104.299 14.131 L 104.808 15.294 L 105.292 16.594 L 105.750 18.031 L 106.179 19.602 L 106.577 21.303 L 106.940 23.132 L 107.268 25.085 L 107.558 27.158 L 107.807 29.349 L 108.014 31.653 L 108.178 34.066 L 108.295 36.583 L 108.366 39.200 L 108.388 41.913 L 108.360 44.716 L 108.281 47.604 L 108.150 50.573 L 107.966 53.616 L 107.729 56.729 L 107.438 59.905 L 107.093 63.140 L 106.693 66.427 L 106.238 69.761 L 105.729 73.135 L 105.166 76.544 L 104.549 79.982 L 103.879 83.442 L 103.157 86.919 L 102.383 90.406 L 101.559 93.898 L 100.686 97.388 L 99.765 100.869 L 98.799 104.337 L 97.788 107.785 L 96.735 111.207 L 95.642 114.597 L 94.510 117.950 L 93.342 121.259 L 92.141 124.520 L 90.909 127.726 L 89.649 130.872 L 88.364 133.953 L 87.056 136.964 L 85.728 139.900 L 84.384 142.756 L 83.027 145.528 L 81.660 148.210 L 80.286 150.799 L 78.909 153.291 L 77.532 155.681 L 76.159 157.966 L 74.794 160.143 L 73.439 162.208 L 72.099 164.158 L 70.777 165.990 L 69.477 167.702 L 68.203 169.292 L 66.958 170.757 L 65.745 172.095 L 64.569 173.306 L 63.432 174.386 L 62.339 175.336 L 61.293 176.154 L 60.297 176.841 L 59.355 177.394 L 58.469 177.815 L 57.644 178.103 L 56.881 178.260 L 56.184 178.284 L 55.556 178.178 L 55.000 177.942 L 54.518 177.578 L 54.112 177.087 L 53.785 176.472 L 53.538 175.733 L 53.375 174.874 L 53.297 173.897 L 53.305 172.804 L 53.402 171.598 L 53.587 170.283 L 53.864 168.862 L 54.231 167.337 L 54.691 165.713 L 55.244 163.994 L 55.890 162.183 L 56.629 160.285 L 57.462 158.303 L 58.388 156.242 L 59.407 154.106 L 60.518 151.901 L 61.720 149.630 L 63.013 147.298 L 64.394 144.911 L 65.864 142.473 L 67.419 139.988 L 69.058 137.463 L 70.780 134.902 L 72.581 132.310 L 74.460 129.692 L 76.414 127.054 L 78.439 124.400 L 80.534 121.736 L 82.695 119.066 L 84.918 116.395 L 87.200 113.729 L 89.538 111.073 L 91.927 108.431 L 94.364 105.808 L 96.844 103.209 L 99.364 100.638 L 101.919 98.100 L 104.505 95.599 L 107.117 93.140 L 109.750 90.726 L 112.400 88.362 L 115.062 86.052 L 117.730 83.798 L 120.401 81.606 L 123.069 79.478 L 125.729 77.418 L 128.375 75.428 L 131.004 73.511 L 133.610 71.671 L 136.187 69.909 L 138.730 68.228 L 141.236 66.631 L 143.698 65.118 L 146.111 63.693 L 148.471 62.355 L 150.773 61.108 L 153.012 59.951 L 155.183 58.886 L 157.282 57.913 L 159.304 57.034 L 161.245 56.248 L 163.100 55.555 L 164.865 54.956 L 166.537 54.450 L 168.112 54.036 L 169.585 53.714 L 170.954 53.483 L 172.215 53.342 L 173.364 53.290 L 174.400 53.326 L 175.319 53.446 L 176.118 53.651 L 176.795 53.938 L 177.349 54.305 L 177.776 54.749 L 178.076 55.269 L 178.247 55.862 L 178.288 56.524 L 178.198 57.254 L 177.976 58.049 L 177.621 58.905 L 177.134 59.819 L 176.514 60.789 L 175.762 61.810 L 174.877 62.880 L 173.862 63.995 L 172.717 65.152 L 171.442 66.347 L 170.040 67.576 L 168.513 68.837 L 166.862 70.124 L 165.089 71.436 L 163.197 72.767 L 161.189 74.115 L 159.068 75.475 L 156.837 76.845 L 154.499 78.220 L 152.057 79.598 L 149.517 80.973 L 146.880 82.344 L 144.153 83.707 L 141.339 85.058 L 138.442 86.394 L 135.468 87.712 L 132.421 89.010 L 129.307 90.283 L 126.130 91.529 L 122.896 92.746 L 119.610 93.931 L 116.279 95.080 L 112.907 96.193 L 109.500 97.267 L 106.064 98.299 L 102.605 99.288 L 99.130 100.232 L 95.643 101.129 L 92.152 101.977 L 88.662 102.776 L 85.179 103.524 L 81.710 104.220 L 78.260 104.864 L 74.836 105.454 L 71.443 105.990 L 68.089 106.472 L 64.777 106.899 L 61.516 107.272 L 58.309 107.590 L 55.164 107.854 L 52.085 108.065 L 49.079 108.222 L 46.150 108.327 L 43.303 108.380 L 40.545 108.383 L 37.879 108.336 L 35.312 108.242 L 32.846 108.102 L 30.487 107.916 L 28.239 107.688 L 26.107 107.418 L 24.093 107.109 L 22.201 106.763 L 20.436 106.382 L 18.800 105.968 L 17.296 105.525 L 15.927 105.053 L 14.695 104.556 L 13.603 104.037 L 12.652 103.498 L 11.845 102.941 L 11.182 102.370 L 10.666 101.788 L 10.296 101.197 L 10.074 100.600 L 10.000 100.000 L 10.074 99.400 L 10.296 98.803 L 10.666 98.212 L 11.182 97.630 L 11.845 97.059 L 12.652 96.502 L 13.603 95.963 L 14.695 95.444 L 15.927 94.947 L 17.296 94.475 L 18.800 94.032 L 20.436 93.618 L 22.201 93.237 L 24.093 92.891 L 26.107 92.582 L 28.239 92.312 L 30.487 92.084 L 32.846 91.898 L 35.312 91.758 L 37.879 91.664 L 40.545 91.617 L 43.303 91.620 L 46.150 91.673 L 49.079 91.778 L 52.085 91.935 L 55.164 92.146 L 58.309 92.410 L 61.516 92.728 L 64.777 93.101 L 68.089 93.528 L 71.443 94.010 L 74.836 94.546 L 78.260 95.136 L 81.710 95.780 L 85.179 96.476 L 88.662 97.224 L 92.152 98.023 L 95.643 98.871 L 99.130 99.768 L 102.605 100.712 L 106.064 101.701 L 109.500 102.733 L 112.907 103.807 L 116.279 104.920 L 119.610 106.069 L 122.896 107.254 L 126.130 108.471 L 129.307 109.717 L 132.421 110.990 L 135.468 112.288 L 138.442 113.606 L 141.339 114.942 L 144.153 116.293 L 146.880 117.656 L 149.517 119.027 L 152.057 120.402 L 154.499 121.780 L 156.837 123.155 L 159.068 124.525 L 161.189 125.885 L 163.197 127.233 L 165.089 128.564 L 166.862 129.876 L 168.513 131.163 L 170.040 132.424 L 171.442 133.653 L 172.717 134.848 L 173.862 136.005 L 174.877 137.120 L 175.762 138.190 L 176.514 139.211 L 177.134 140.181 L 177.621 141.095 L 177.976 141.951 L 178.198 142.746 L 178.288 143.476 L 178.247 144.138 L 178.076 144.731 L 177.776 145.251 L 177.349 145.695 L 176.795 146.062 L 176.118 146.349 L 175.319 146.554 L 174.400 146.674 L 173.364 146.710 L 172.215 146.658 L 170.954 146.517 L 169.585 146.286 L 168.112 145.964 L 166.537 145.550 L 164.865 145.044 L 163.100 144.445 L 161.245 143.752 L 159.304 142.966 L 157.282 142.087 L 155.183 141.114 L 153.012 140.049 L 150.773 138.892 L 148.471 137.645 L 146.111 136.307 L 143.698 134.882 L 141.236 133.369 L 138.730 131.772 L 136.187 130.091 L 133.610 128.329 L 131.004 126.489 L 128.375 124.572 L 125.729 122.582 L 123.069 120.522 L 120.401 118.394 L 117.730 116.202 L 115.062 113.948 L 112.400 111.638 L 109.750 109.274 L 107.117 106.860 L 104.505 104.401 L 101.919 101.900 L 99.364 99.362 L 96.844 96.791 L 94.364 94.192 L 91.927 91.569 L 89.538 88.927 L 87.200 86.271 L 84.918 83.605 L 82.695 80.934 L 80.534 78.264 L 78.439 75.600 L 76.414 72.946 L 74.460 70.308 L 72.581 67.690 L 70.780 65.098 L 69.058 62.537 L 67.419 60.012 L 65.864 57.527 L 64.394 55.089 L 63.013 52.702 L 61.720 50.370 L 60.518 48.099 L 59.407 45.894 L 58.388 43.758 L 57.462 41.697 L 56.629 39.715 L 55.890 37.817 L 55.244 36.006 L 54.691 34.287 L 54.231 32.663 L 53.864 31.138 L 53.587 29.717 L 53.402 28.402 L 53.305 27.196 L 53.297 26.103 L 53.375 25.126 L 53.538 24.267 L 53.785 23.528 L 54.112 22.913 L 54.518 22.422 L 55.000 22.058 L 55.556 21.822 L 56.184 21.716 L 56.881 21.740 L 57.644 21.897 L 58.469 22.185 L 59.355 22.606 L 60.297 23.159 L 61.293 23.846 L 62.339 24.664 L 63.432 25.614 L 64.569 26.694 L 65.745 27.905 L 66.958 29.243 L 68.203 30.708 L 69.477 32.298 L 70.777 34.010 L 72.099 35.842 L 73.439 37.792 L 74.794 39.857 L 76.159 42.034 L 77.532 44.319 L 78.909 46.709 L 80.286 49.201 L 81.660 51.790 L 83.027 54.472 L 84.384 57.244 L 85.728 60.100 L 87.056 63.036 L 88.364 66.047 L 89.649 69.128 L 90.909 72.274 L 92.141 75.480 L 93.342 78.741 L 94.510 82.050 L 95.642 85.403 L 96.735 88.793 L 97.788 92.215 L 98.799 95.663 L 99.765 99.131 L 100.686 102.612 L 101.559 106.102 L 102.383 109.594 L 103.157 113.081 L 103.879 116.558 L 104.549 120.018 L 105.166 123.456 L 105.729 126.865 L 106.238 130.239 L 106.693 133.573 L 107.093 136.860 L 107.438 140.095 L 107.729 143.271 L 107.966 146.384 L 108.150 149.427 L 108.281 152.396 L 108.360 155.284 L 108.388 158.087 L 108.366 160.800 L 108.295 163.417 L 108.178 165.934 L 108.014 168.347 L 107.807 170.651 L 107.558 172.842 L 107.268 174.915 L 106.940 176.868 L 106.577 178.697 L 106.179 180.398 L 105.750 181.969 L 105.292 183.406 L 104.808 184.706 L 104.299 185.869 L 103.770 186.890 L 103.221 187.769 L 102.657 188.505 L 102.080 189.094 L 101.493 189.537 L 100.899 189.833 L 100.300 189.981 L 99.700 189.981 L 99.101 189.833 L 98.507 189.537 L 97.920 189.094 L 97.343 188.505 L 96.779 187.769 L 96.230 186.890 L 95.701 185.869 L 95.192 184.706 L 94.708 183.406 L 94.250 181.969 L 93.821 180.398 L 93.423 178.697 L 93.060 176.868 L 92.732 174.915 L 92.442 172.842 L 92.193 170.651 L 91.986 168.347 L 91.822 165.934 L 91.705 163.417 L 91.634 160.800 L 91.612 158.087 L 91.640 155.284 L 91.719 152.396 L 91.850 149.427 L 92.034 146.384 L 92.271 143.271 L 92.562 140.095 L 92.907 136.860 L 93.307 133.573 L 93.762 130.239 L 94.271 126.865 L 94.834 123.456 L 95.451 120.018 L 96.121 116.558 L 96.843 113.081 L 97.617 109.594 L 98.441 106.102 L 99.314 102.612 L 100.235 99.131 L 101.201 95.663 L 102.212 92.215 L 103.265 88.793 L 104.358 85.403 L 105.490 82.050 L 106.658 78.741 L 107.859 75.480 L 109.091 72.274 L 110.351 69.128 L 111.636 66.047 L 112.944 63.036 L 114.272 60.100 L 115.616 57.244 L 116.973 54.472 L 118.340 51.790 L 119.714 49.201 L 121.091 46.709 L 122.468 44.319 L 123.841 42.034 L 125.206 39.857 L 126.561 37.792 L 127.901 35.842 L 129.223 34.010 L 130.523 32.298 L 131.797 30.708 L 133.042 29.243 L 134.255 27.905 L 135.431 26.694 L 136.568 25.614 L 137.661 24.664 L 138.707 23.846 L 139.703 23.159 L 140.645 22.606 L 141.531 22.185 L 142.356 21.897 L 143.119 21.740 L 143.816 21.716 L 144.444 21.822 L 145.000 22.058 L 145.482 22.422 L 145.888 22.913 L 146.215 23.528 L 146.462 24.267 L 146.625 25.126 L 146.703 26.103 L 146.695 27.196 L 146.598 28.402 L 146.413 29.717 L 146.136 31.138 L 145.769 32.663 L 145.309 34.287 L 144.756 36.006 L 144.110 37.817 L 143.371 39.715 L 142.538 41.697 L 141.612 43.758 L 140.593 45.894 L 139.482 48.099 L 138.280 50.370 L 136.987 52.702 L 135.606 55.089 L 134.136 57.527 L 132.581 60.012 L 130.942 62.537 L 129.220 65.098 L 127.419 67.690 L 125.540 70.308 L 123.586 72.946 L 121.561 75.600 L 119.466 78.264 L 117.305 80.934 L 115.082 83.605 L 112.800 86.271 L 110.462 88.927 L 108.073 91.569 L 105.636 94.192 L 103.156 96.791 L 100.636 99.362 L 98.081 101.900 L 95.495 104.401 L 92.883 106.860 L 90.250 109.274 L 87.600 111.638 L 84.938 113.948 L 82.270 116.202 L 79.599 118.394 L 76.931 120.522 L 74.271 122.582 L 71.625 124.572 L 68.996 126.489 L 66.390 128.329 L 63.813 130.091 L 61.270 131.772 L 58.764 133.369 L 56.302 134.882 L 53.889 136.307 L 51.529 137.645 L 49.227 138.892 L 46.988 140.049 L 44.817 141.114 L 42.718 142.087 L 40.696 142.966 L 38.755 143.752 L 36.900 144.445 L 35.135 145.044 L 33.463 145.550 L 31.888 145.964 L 30.415 146.286 L 29.046 146.517 L 27.785 146.658 L 26.636 146.710 L 25.600 146.674 L 24.681 146.554 L 23.882 146.349 L 23.205 146.062 L 22.651 145.695 L 22.224 145.251 L 21.924 144.731 L 21.753 144.138 L 21.712 143.476 L 21.802 142.746 L 22.024 141.951 L 22.379 141.095 L 22.866 140.181 L 23.486 139.211 L 24.238 138.190 L 25.123 137.120 L 26.138 136.005 L 27.283 134.848 L 28.558 133.653 L 29.960 132.424 L 31.487 131.163 L 33.138 129.876 L 34.911 128.564 L 36.803 127.233 L 38.811 125.885 L 40.932 124.525 L 43.163 123.155 L 45.501 121.780 L 47.943 120.402 L 50.483 119.027 L 53.120 117.656 L 55.847 116.293 L 58.661 114.942 L 61.558 113.606 L 64.532 112.288 L 67.579 110.990 L 70.693 109.717 L 73.870 108.471 L 77.104 107.254 L 80.390 106.069 L 83.721 104.920 L 87.093 103.807 L 90.500 102.733 L 93.936 101.701 L 97.395 100.712 L 100.870 99.768 L 104.357 98.871 L 107.848 98.023 L 111.338 97.224 L 114.821 96.476 L 118.290 95.780 L 121.740 95.136 L 125.164 94.546 L 128.557 94.010 L 131.911 93.528 L 135.223 93.101 L 138.484 92.728 L 141.691 92.410 L 144.836 92.146 L 147.915 91.935 L 150.921 91.778 L 153.850 91.673 L 156.697 91.620 L 159.455 91.617 L 162.121 91.664 L 164.688 91.758 L 167.154 91.898 L 169.513 92.084 L 171.761 92.312 L 173.893 92.582 L 175.907 92.891 L 177.799 93.237 L 179.564 93.618 L 181.200 94.032 L 182.704 94.475 L 184.073 94.947 L 185.305 95.444 L 186.397 95.963 L 187.348 96.502 L 188.155 97.059 L 188.818 97.630 L 189.334 98.212 L 189.704 98.803 L 189.926 99.400 L 190.000 100.000" />
</svg>