<svg xmlns="http://www.w3.org/2000/svg" viewBox="0 0 200 200" width="100%" height="100%">
    <path fill="none" stroke="black" stroke-width="1" d="M 190.000 100.000 L 189.956 102.262 L 189.822 104.522 L 189.601 106.779 L 189.290 109.033 L 188.892 111.280 L 188.406 113.520 L 187.833 115.752 L 187.172 117.974 L 186.426 120.184 L 185.595 122.382 L 184.679 124.566 L 183.680 126.734 L 182.598 128.885 L 181.434 131.018 L 180.191 133.131 L 178.868 135.224 L 177.467 137.294 L 175.990 139.340 L 174.437 141.362 L 172.812 143.358 L 171.114 145.326 L 169.346 147.266 L 167.510 149.175 L 165.607 151.054 L 163.640 152.901 L 161.609 154.714 L 159.518 156.492 L 157.368 158.235 L 155.162 159.941 L 152.901 161.609 L 150.588 163.238 L 148.224 164.828 L 145.814 166.376 L 143.358 167.883 L 140.859 169.346 L 138.320 170.766 L 135.743 172.141 L 133.131 173.471 L 130.486 174.754 L 127.812 175.990 L 125.109 177.177 L 122.382 178.317 L 119.633 179.406 L 116.864 180.446 L 114.079 181.434 L 111.280 182.372 L 108.470 183.257 L 105.651 184.090 L 102.827 184.869 L 100.000 185.595 L 97.173 186.267 L 94.349 186.884 L 91.530 187.447 L 88.720 187.954 L 85.921 188.406 L 83.136 188.802 L 80.367 189.142 L 77.618 189.425 L 74.891 189.652 L 72.188 189.822 L 69.514 189.936 L 66.869 189.993 L 64.257 189.993 L 61.680 189.936 L 59.141 189.822 L 56.642 189.652 L 54.186 189.425 L 51.776 189.142 L 49.412 188.802 L 47.099 188.406 L 44.838 187.954 L 42.632 187.447 L 40.482 186.884 L 38.391 186.267 L 36.360 185.595 L 34.393 184.869 L 32.490 184.090 L 30.654 183.257 L 28.886 182.372 L 27.188 181.434 L 25.563 180.446 L 24.010 179.406 L 22.533 178.317 L 21.132 177.177 L 19.809 175.990 L 18.566 174.754 L 17.402 173.471 L 16.320 172.141 L 15.321 170.766 L 14.405 169.346 L 13.574 167.883 L 12.828 166.376 L 12.167 164.828 L 11.594 163.238 L 11.108 161.609 L 10.710 159.941 L 10.399 158.235 L 10.178 156.492 L 10.044 154.714 L 10.000 152.901 L 10.044 151.054 L 10.178 149.175 L 10.399 147.266 L 10.710 145.326 L 11.108 143.358 L 11.594 141.362 L 12.167 139.340 L 12.828 137.294 L 13.574 135.224 L 14.405 133.131 L 15.321 131.018 L 16.320 128.885 L 17.402 126.734 L 18.566 124.566 L 19.809 122.382 L 21.132 120.184 L 22.533 117.974 L 24.010 115.752 L 25.563 113.520 L 27.188 111.280 L 28.886 109.033 L 30.654 106.779 L 32.490 104.522 L 34.393 102.262 L 36.360 100.000 L 38.391 97.738 L 40.482 95.478 L 42.632 93.221 L 44.838 90.967 L 47.099 88.720 L 49.412 86.480 L 51.776 84.248 L 54.186 82.026 L 56.642 79.816 L 59.141 77.618 L 61.680 75.434 L 64.257 73.266 L 66.869 71.115 L 69.514 68.982 L 72.188 66.869 L 74.891 64.776 L 77.618 62.706 L 80.367 60.660 L 83.136 58.638 L 85.921 56.642 L 88.720 54.674 L 91.530 52.734 L 94.349 50.825 L 97.173 48.946 L 100.000 47.099 L 102.827 45.286 L 105.651 43.508 L 108.470 41.765 L 111.280 40.059 L 114.079 38.391 L 116.864 36.762 L 119.633 35.172 L 122.382 33.624 L 125.109 32.117 L 127.812 30.654 L 130.486 29.234 L 133.131 27.859 L 135.743 26.529 L 138.320 25.246 L 140.859 24.010 L 143.358 22.823 L 145.814 21.683 L 148.224 20.594 L 150.588 19.554 L 152.901 18.566 L 155.162 17.628 L 157.368 16.743 L 159.518 15.910 L 161.609 15.131 L 163.640 14.405 L 165.607 13.733 L 167.510 13.116 L 169.346 12.553 L 171.114 12.046 L 172.812 11.594 L 174.437 11.198 L 175.990 10.858 L 177.467 10.575 L 178.868 10.348 L 180.191 10.178 L 181.434 10.064 L 182.598 10.007 L 183.680 10.007 L 184.679 10.064 L 185.595 10.178 L 186.426 10.348 L 187.172 10.575 L 187.833 10.858 L 188.406 11.198 L 188.892 11.594 L 189.290 12.046 L 189.601 12.553 L 189.822 13.116 L 189.956 13.733 L 190.000 14.405 L 189.956 15.131 L 189.822 15.910 L 189.601 16.743 L 189.290 17.628 L 188.892 18.566 L 188.406 19.554 L 187.833 20.594 L 187.172 21.683 L 186.426 22.823 L 185.595 24.010 L 184.679 25.246 L 183.680 26.529 L 182.598 27.859 L 181.434 29.234 L 180.191 30.654 L 178.868 32.117 L 177.467 33.624 L 175.990 35.172 L 174.437 36.762 L 172.812 38.391 L 171.114 40.059 L 169.346 41.765 L 167.510 43.508 L 165.607 45.286 L 163.640 47.099 L 161.609 48.946 L 159.518 50.825 L 157.368 52.734 L 155.162 54.674 L 152.901 56.642 L 150.588 58.638 L 148.224 60.660 L 145.814 62.706 L 143.358 64.776 L 140.859 66.869 L 138.320 68.982 L 135.743 71.115 L 133.131 73.266 L 130.486 75.434 L 127.812 77.618 L 125.109 79.816 L 122.382 82.026 L 119.633 84.248 L 116.864 86.480 L 114.079 88.720 L 111.280 90.967 L 108.470 93.221 L 105.651 95.478 L 102.827 97.738 L 100.000 100.000 L 97.173 102.262 L 94.349 104.522 L 91.530 106.779 L 88.720 109.033 L 85.921 111.280 L 83.136 113.520 L 80.367 115.752 L 77.618 117.974 L 74.891 120.184 L 72.188 122.382 L 69.514 124.566 L 66.869 126.734 L 64.257 128.885 L 61.680 131.018 L 59.141 133.131 L 56.642 135.224 L 54.186 137.294 L 51.776 139.340 L 49.412 141.362 L 47.099 143.358 L 44.838 145.326 L 42.632 147.266 L 40.482 149.175 L 38.391 151.054 L 36.360 152.901 L 34.393 154.714 L 32.490 156.492 L 30.654 158.235 L 28.886 159.941 L 27.188 161.609 L 25.563 163.238 L 24.010 164.828 L 22.533 166.376 L 21.132 167.883 L 19.809 169.346 L 18.566 170.766 L 17.402 172.141 L 16.320 173.471 L 15.321 174.754 L 14.405 175.990 L 13.574 177.177 L 12.828 178.317 L 12.167 179.406 L 11.594 180.446 L 11.108 181.434 L 10.710 182.372 L 10.399 183.257 L 10.178 184.090 L 10.044 184.869 L 10.000 185.595 L 10.044 186.267 L 10.178 186.884 L 10.399 187.447 L 10.710 187.954 L 11.108 188.406 L 11.594 188.802 L 12.167 189.142 L 12.828 189.425 L 13.574 189.652 L 14.405 189.822 L 15.321 189.936 L 16.320 189.993 L 17.402 189.993 L 18.566 189.936 L 19.809 189.822 L 21.132 189.652 L 22.533 189.425 L 24.010 189.142 L 25.563 188.802 L 27.188 188.406 L 28.886 187.954 L 30.654 187.447 L 32.490 186.884 L 34.393 186.267 L 36.360 185.595 L 38.391 184.869 L 40.482 184.090 L 42.632 183.257 L 44.838 182.372 L 47.099 181.434 L 49.412 180.446 L 51.776 179.406 L 54.186 178.317 L 56.642 177.177 L 59.141 175.990 L 61.680 174.754 L 64.257 173.471 L 66.869 172.141 L 69.514 170.766 L 72.188 169.346 L 74.891 167.883 L 77.618 166.376 L 80.367 164.828 L 83.136 163.238 L 85.921 161.609 L 88.720 159.941 L 91.530 158.235 L 94.349 156.492 L 97.173 154.714 L 100.000 152.901 L 102.827 151.054 L 105.651 149.175 L 108.470 147.266 L 111.280 145.326 L 114.079 143.358 L 116.864 141.362 L 119.633 139.340 L 122.382 137.294 L 125.109 135.224 L 127.812 133.131 L 130.486 131.018 L 133.131 128.885 L 135.743 126.734 L 138.320 124.566 L 140.859 122.382 L 143.358 120.184 L 145.814 117.974 L 148.224 115.752 L 150.588 113.520 L 152.901 111.280 L 155.162 109.033 L 157.368 106.779 L 159.518 104.522 L 161.609 102.262 L 163.640 100.000 L 165.607 97.738 L 167.510 95.478 L 169.346 93.221 L 171.114 90.967 L 172.812 88.720 L 174.437 86.480 L 175.990 84.248 L 177.467 82.026 L 178.868 79.816 L 180.191 77.618 L 181.434 75.434 L 182.598 73.266 L 183.680 71.115 L 184.679 68.982 L 185.595 66.869 L 186.426 64.776 L 187.172 62.706 L 187.833 60.660 L 188.406 58.638 L 188.892 56.642 L 189.290 54.674 L 189.601 52.734 L 189.822 50.825 L 189.956 48.946 L 190.000 47.099 L 189.956 45.286 L 189.822 43.508 L 189.601 41.765 L 189.290 40.059 L 188.892 38.391 L 188.406 36.762 L 187.833 35.172 L 187.172 33.624 L 186.426 32.117 L 185.595 30.654 L 184.679 29.234 L 183.680 27.859 L 182.598 26.529 L 181.434 25.246 L 180.191 24.010 L 178.868 22.823 L 177.467 21.683 L 175.990 20.594 L 174.437 19.554 L 172.812 18.566 L 171.114 17.628 L 169.346 16.743 L 167.510 15.910 L 165.607 15.131 L 163.640 14.405 L 161.609 13.733 L 159.518 13.116 L 157.368 12.553 L 155.162 12.046 L 152.901 11.594 L 150.588 11.198 L 148.224 10.858 L 145.814 10.575 L 143.358 10.348 L 140.859 10.178 L 138.320 10.064 L 135.743 10.007 L 133.131 10.007 L 130.486 10.064 L 127.812 10.178 L 125.109 10.348 L 122.382 10.575 L 119.633 10.858 L 116.864 11.198 L 114.079 11.594 L 111.280 12.046 L 108.470 12.553 L 105.651 13.116 L 102.827 13.733 L 100.000 14.405 L 97.173 15.131 L 94.349 15.910 L 91.530 16.743 L 88.720 17.628 L 85.921 18.566 L 83.136 19.554 L 80.367 20.594 L 77.618 21.683 L 74.891 22.823 L 72.188 24.010 L 69.514 25.246 L 66.869 26.529 L 64.257 27.859 L 61.680 29.234 L 59.141 30.654 L 56.642 32.117 L 54.186 33.624 L 51.776 35.172 L 49.412 36.762 L 47.099 38.391 L 44.838 40.059 L 42.632 41.765 L 40.482 43.508 L 38.391 45.286 L 36.360 47.099 L 34.393 48.946 L 32.490 50.825 L 30.654 52.734 L 28.886 54.674 L 27.188 56.642 L 25.563 58.638 L 24.010 60.660 L 22.533 62.706 L 21.132 64.776 L 19.809 66.869 L 18.566 68.982 L 17.402 71.115 L 16.320 73.266 L 15.321 75.434 L 14.405 77.618 L 13.574 79.816 L 12.828 82.026 L 12.167 84.248 L 11.594 86.480 L 11.108 88.720 L 10.710 90.967 L 10.399 93.221 L 10.178 95.478 L 10.044 97.738 L 10.000 100.000 L 10.044 102.262 L 10.178 104.522 L 10.399 106.779 L 10.710 109.033 L 11.108 111.280 L 11.594 113.520 L 12.167 115.752 L 12.828 117.974 L 13.574 120.184 L 14.405 122.382 L 15.321 124.566 L 16.320 126.734 L 17.402 128.885 L 18.566 131.018 L 19.809 133.131 L 21.132 135.224 L 22.533 137.294 L 24.010 139.340 L 25.563 141.362 L 27.188 143.358 L 28.886 145.326 L 30.654 147.266 L 32.490 149.175 L 34.393 151.054 L 36.360 152.901 L 38.391 154.714 L 40.482 156.492 L 42.632 158.235 L 44.838 159.941 L 47.099 161.609 L 49.412 163.238 L 51.776 164.828 L 54.186 166.376 L 56.642 167.883 L 59.141 169.346 L 61.680 170.766 L 64.257 172.141 L 66.869 173.471 L 69.514 174.754 L 72.188 175.990 L 74.891 177.177 L 77.618 178.317 L 80.367 179.406 L 83.136 180.446 L 85.921 181.434 L 88.720 182.372 L 91.530 183.257 L 94.349 184.090 L 97.173 184.869 L 100.000 185.595 L 102.827 186.267 L 105.651 186.884 L 108.470 187.447 L 111.280 187.954 L 114.079 188.406 L 116.864 188.802 L 119.633 189.142 L 122.382 189.425 L 125.109 189.652 L 127.812 189.822 L 130.486 189.936 L 133.131 189.993 L 135.743 189.993 L 138.320 189.936 L 140.859 189.822 L 143.358 189.652 L 145.814 189.425 L 148.224 189.142 L 150.588 188.802 L 152.901 188.406 L 155.162 187.954 L 157.368 187.447 L 159.518 186.884 L 161.609 186.267 L 163.640 185.595 L 165.607 184.869 L 167.510 184.090 L 169.346 183.257 L 171.114 182.372 L 172.812 181.434 L 174.437 180.446 L 175.990 179.406 L 177.467 178.317 L 178.868 177.177 L 180.191 175.990 L 181.434 174.754 L 182.598 173.471 L 183.680 172.141 L 184.679 170.766 L 185.595 169.346 L 186.426 167.883 L 187.172 166.376 L 187.833 164.828 L 188.406 163.238 L 188.892 161.609 L 189.290 159.941 L 189.601 158.235 L 189.822 156.492 L 189.956 154.714 L 190.000 152.901 L 189.956 151.054 L 189.822 149.175 L 189.601 147.266 L 189.290 145.326 L 188.892 143.358 L 188.406 141.362 L 187.833 139.340 L 187.172 137.294 L 186.426 135.224 L 185.595 133.131 L 184.679 131.018 L 183.680 128.885 L 182.598 126.734 L 181.434 124.566 L 180.191 122.382 L 178.868 120.184 L 177.467 117.974 L 175.990 115.752 L 174.437 113.520 L 172.812 111.280 L 171.114 109.033 L 169.346 106.779 L 167.510 104.522 L 165.607 102.262 L 163.640 100.000 L 161.609 97.738 L 159.518 95.478 L 157.368 93.221 L 155.162 90.967 L 152.901 88.720 L 150.588 86.480 L 148.224 84.248 L 145.814 82.026 L 143.358 79.816 L 140.859 77.618 L 138.320 75.434 L 135.743 73.266 L 133.131 71.115 L 130.486 68.982 L 127.812 66.869 L 125.109 64.776 L 122.382 62.706 L 119.633 60.660 L 116.864 58.638 L 114.079 56.642 L 111.280 54.674 L 108.470 52.734 L 105.651 50.825 L 102.827 48.946 L 100.000 47.099 L 97.173 45.286 L 94.349 43.508 L 91.530 41.765 L 88.720 40.059 L 85.921 38.391 L 83.136 36.762 L 80.367 35.172 L 77.618 33.624 L 74.891 32.117 L 72.188 30.654 L 69.514 29.234 L 66.869 27.859 L 64.257 26.529 L 61.680 25.246 L 59.141 24.010 L 56.642 22.823 L 54.186 21.683 L 51.776 20.594 L 49.412 19.554 L 47.099 18.566 L 44.838 17.628 L 42.632 16.743 L 40.482 15.910 L 38.391 15.131 L 36.360 14.405 L 34.393 13.733 L 32.490 13.116 L 30.654 12.553 L 28.886 12.046 L 27.188 11.594 L 25.563 11.198 L 24.010 10.858 L 22.533 10.575 L 21.132 10.348 L 19.809 10.178 L 18.566 10.064 L 17.402 10.007 L 16.320 10.007 L 15.321 10.064 L 14.405 10.178 L 13.574 10.348 L 12.828 10.575 L 12.167 10.858 L 11.594 11.198 L 11.108 11.594 L 10.710 12.046 L 10.399 12.553 L 10.178 13.116 L 10.044 13.733 L 10.000 14.405 L 10.044 15.131 L 10.178 15.910 L 10.399 16.743 L 10.710 17.628 L 11.108 18.566 L 11.594 19.554 L 12.167 20.594 L 12.828 21.683 L 13.574 22.823 L 14.405 24.010 L 15.321 25.246 L 16.320 26.529 L 17.402 27.859 L 18.566 29.234 L 19.809 30.654 L 21.132 32.117 L 22.533 33.624 L 24.010 35.172 L 25.563 36.762 L 27.188 38.391 L 28.886 40.059 L 30.654 41.765 L 32.490 43.508 L 34.393 45.286 L 36.360 47.099 L 38.391 48.946 L 40.482 50.825 L 42.632 52.734 L 44.838 54.674 L 47.099 56.642 L 49.412 58.638 L 51.776 60.660 L 54.186 62.706 L 56.642 64.776 L 59.141 66.869 L 61.680 68.982 L 64.257 71.115 L 66.869 73.266 L 69.514 75.434 L 72.188 77.618 L 74.891 79.816 L 77.618 82.026 L 80.367 84.248 L 83.136 86.480 L 85.921 88.720 L 88.720 90.967 L 91.530 93.221 L 94.349 95.478 L 97.173 97.738 L 100.000 100.000 L 102.827 102.262 L 105.651 104.522 L 108.470 106.779 L 111.280 109.033 L 114.079 111.280 L 116.864 113.520 L 119.633 115.752 L 122.382 117.974 L 125.109 120.184 L 127.812 122.382 L 130.486 124.566 L 133.131 126.734 L 135.743 128.885 L 138.320 131.018 L 140.859 133.131 L 143.358 135.224 L 145.814 137.294 L 148.224 139.340 L 150.588 141.362 L 152.901 143.358 L 155.162 145.326 L 157.368 147.266 L 159.518 149.175 L 161.609 151.054 L 163.640 152.901 L 165.607 154.714 L 167.510 156.492 L 169.346 158.235 L 171.114 159.941 L 172.812 161.609 L 174.437 163.238 L 175.990 164.828 L 177.467 166.376 L 178.868 167.883 L 180.191 169.346 L 181.434 170.766 L 182.598 172.141 L 183.680 173.471 L 184.679 174.754 L 185.595 175.990 L 186.426 177.177 L 187.172 178.317 L 187.833 179.406 L 188.406 180.446 L 188.892 181.434 L 189.290 182.372 L 189.601 183.257 L 189.822 184.090 L 189.956 184.869 L 190.000 185.595 L 189.956 186.267 L 189.822 186.884 L 189.601 187.447 L 189.290 187.954 L 188.892 188.406 L 188.406 188.802 L 187.833 189.142 L 187.172 189.425 L 186.426 189.652 L 185.595 189.822 L 184.679 189.936 L 183.680 189.993 L 182.598 189.993 L 181.434 189.936 L 180.191 189.822 L 178.868 189.652 L 177.467 189.425 L 175.990 189.142 L 174.437 188.802 L 172.812 188.406 L 171.114 187.954 L 169.346 187.447 L 167.510 186.884 L 165.607 186.267 L 163.640 185.595 L 161.609 184.869 L 159.518 184.090 L 157.368 183.257 L 155.162 182.372 L 152.901 181.434 L 150.588 180.446 L 148.224 179.406 L 145.814 178.317 L 143.358 177.177 L 140.859 175.990 L 138.320 174.754 L 135.743 173.471 L 133.131 172.141 L 130.486 170.766 L 127.812 169.346 L 125.109 167.883 L 122.382 166.376 L 119.633 164.828 L 116.864 163.238 L 114.079 161.609 L 111.280 159.941 L 108.470 158.235 L 105.651 156.492 L 102.827 154.714 L 100.000 152.901 L 97.173 151.054 L 94.349 149.175 L 91.530 147.266 L 88.720 145.326 L 85.921 143.358 L 83.136 141.362 L 80.367 139.340 L 77.618 137.294 L 74.891 135.224 L 72.188 133.131 L 69.514 131.018 L 66.869 128.885 L 64.257 126.734 L 61.680 124.566 L 59.141 122.382 L 56.642 120.184 L 54.186 117.974 L 51.776 115.752 L 49.412 113.520 L 47.099 111.280 L 44.838 109.033 L 42.632 106.779 L 40.482 104.522 L 38.391 102.262 L 36.360 100.000 L 34.393 97.738 L 32.490 95.478 L 30.654 93.221 L 28.886 90.967 L 27.188 88.720 L 25.563 86.480 L 24.010 84.248 L 22.533 82.026 L 21.132 79.816 L 19.809 77.618 L 18.566 75.434 L 17.402 73.266 L 16.320 71.115 L 15.321 68.982 L 14.405 66.869 L 13.574 64.776 L 12.828 62.706 L 12.167 60.660 L 11.594 58.638 L 11.108 56.642 L 10.710 54.674 L 10.399 52.734 L 10.178 50.825 L 10.044 48.946 L 10.000 47.099 L 10.044 45.286 L 10.178 43.508 L 10.399 41.765 L 10.710 40.059 L 11.108 38.391 L 11.594 36.762 L 12.167 35.172 L 12.828 33.624 L 13.574 32.117 L 14.405 30.654 L 15.321 29.234 L 16.320 27.859 L 17.402 26.529 L 18.566 25.246 L 19.809 24.010 L 21.132 22.823 L 22.533 21.683 L 24.010 20.594 L 25.563 19.554 L 27.188 18.566 L 28.886 17.628 L 30.654 16.743 L 32.490 15.910 L 34.393 15.131 L 36.360 14.405 L 38.391 13.733 L 40.482 13.116 L 42.632 12.553 L 44.838 12.046 L 47.099 11.594 L 49.412 11.198 L 51.776 10.858 L 54.186 10.575 L 56.642 10.348 L 59.141 10.178 L 61.680 10.064 L 64.257 10.007 L 66.869 10.007 L 69.514 10.064 L 72.188 10.178 L 74.891 10.348 L 77.618 10.575 L 80.367 10.858 L 83.136 11.198 L 85.921 11.594 L 88.720 12.046 L 91.530 12.553 L 94.349 13.116 L 97.173 13.733 L 100.000 14.405 L 102.827 15.131 L 105.651 15.910 L 108.470 16.743 L 111.280 17.628 L 114.079 18.566 L 116.864 19.554 L 119.633 20.594 L 122.382 21.683 L 125.109 22.823 L 127.812 24.010 L 130.486 25.246 L 133.131 26.529 L 135.743 27.859 L 138.320 29.234 L 140.859 30.654 L 143.358 32.117 L 145.814 33.624 L 148.224 35.172 L 150.588 36.762 L 152.901 38.391 L 155.162 40.059 L 157.368 41.765 L 159.518 43.508 L 161.609 45.286 L 163.640 47.099 L 165.607 48.946 L 167.510 50.825 L 169.346 52.734 L 171.114 54.674 L 172.812 56.642 L 174.437 58.638 L 175.990 60.660 L 177.467 62.706 L 178.868 64.776 L 180.191 66.869 L 181.434 68.982 L 182.598 71.115 L 183.680 73.266 L 184.679 75.434 L 185.595 77.618 L 186.426 79.816 L 187.172 82.026 L 187.833 84.248 L 188.406 86.480 L 188.892 88.720 L 189.290 90.967 L 189.601 93.221 L 189.822 95.478 L 189.956 97.738 L 190.000 100.000" />
</svg>