<svg xmlns="http://www.w3.org/2000/svg" viewBox="0 0 200 200" width="100%" height="100%">
    <path fill="none" stroke="black" stroke-width="1" d="M 179.000 100.000 L 178.701 96.911 L 177.805 93.872 L 176.323 90.933 L 174.270 88.143 L 171.665 85.549 L 168.536 83.194 L 164.913 81.120 L 160.834 79.365 L 156.339 77.964 L 151.473 76.946 L 146.285 76.336 L 140.826 76.154 L 135.150 76.415 L 129.313 77.128 L 123.371 78.297 L 117.384 79.920 L 111.407 81.989 L 105.498 84.491 L 99.713 87.407 L 94.106 90.712 L 88.727 94.379 L 83.626 98.372 L 78.846 102.653 L 74.429 107.179 L 70.411 111.906 L 66.824 116.784 L 63.693 121.762 L 61.040 126.787 L 58.881 131.804 L 57.224 136.758 L 56.073 141.595 L 55.427 146.259 L 55.278 150.697 L 55.612 154.857 L 56.410 158.692 L 57.649 162.153 L 59.299 165.199 L 61.327 167.791 L 63.696 169.895 L 66.363 171.481 L 69.286 172.526 L 72.417 173.010 L 75.707 172.920 L 79.106 172.250 L 82.562 170.998 L 86.026 169.169 L 89.444 166.774 L 92.769 163.830 L 95.951 160.360 L 98.944 156.390 L 101.705 151.956 L 104.194 147.094 L 106.375 141.847 L 108.215 136.262 L 109.687 130.388 L 110.768 124.279 L 111.440 117.990 L 111.692 111.579 L 111.517 105.103 L 110.913 98.621 L 109.886 92.194 L 108.445 85.878 L 106.607 79.730 L 104.391 73.806 L 101.825 68.158 L 98.939 62.835 L 95.767 57.883 L 92.350 53.343 L 88.730 49.253 L 84.953 45.644 L 81.067 42.544 L 77.122 39.973 L 73.170 37.949 L 69.263 36.479 L 65.454 35.569 L 61.794 35.216 L 58.336 35.412 L 55.127 36.144 L 52.215 37.391 L 49.644 39.129 L 47.454 41.329 L 45.683 43.956 L 44.364 46.971 L 43.523 50.332 L 43.184 53.993 L 43.364 57.905 L 44.075 62.018 L 45.324 66.279 L 47.109 70.636 L 49.426 75.034 L 52.263 79.421 L 55.603 83.743 L 59.422 87.950 L 63.692 91.993 L 68.380 95.826 L 73.447 99.405 L 78.851 102.692 L 84.545 105.649 L 90.479 108.248 L 96.601 110.462 L 102.854 112.269 L 109.183 113.655 L 115.528 114.609 L 121.831 115.126 L 128.035 115.209 L 134.080 114.864 L 139.911 114.103 L 145.474 112.944 L 150.716 111.410 L 155.590 109.529 L 160.049 107.333 L 164.055 104.857 L 167.569 102.144 L 170.562 99.234 L 173.008 96.175 L 174.885 93.014 L 176.180 89.801 L 176.885 86.586 L 176.996 83.420 L 176.518 80.353 L 175.460 77.436 L 173.837 74.715 L 171.671 72.237 L 168.988 70.046 L 165.820 68.180 L 162.203 66.678 L 158.179 65.570 L 153.791 64.885 L 149.089 64.645 L 144.123 64.869 L 138.946 65.568 L 133.613 66.750 L 128.180 68.414 L 122.704 70.557 L 117.240 73.166 L 111.844 76.227 L 106.569 79.718 L 101.469 83.611 L 96.591 87.874 L 91.981 92.470 L 87.683 97.359 L 83.735 102.495 L 80.170 107.830 L 77.018 113.313 L 74.302 118.891 L 72.040 124.508 L 70.246 130.108 L 68.926 135.634 L 68.082 141.031 L 67.709 146.242 L 67.797 151.212 L 68.332 155.890 L 69.291 160.226 L 70.649 164.173 L 72.376 167.688 L 74.436 170.733 L 76.792 173.273 L 79.401 175.279 L 82.219 176.728 L 85.197 177.601 L 88.287 177.885 L 91.440 177.576 L 94.605 176.671 L 97.730 175.176 L 100.767 173.104 L 103.666 170.471 L 106.382 167.301 L 108.870 163.623 L 111.089 159.470 L 113.001 154.882 L 114.572 149.900 L 115.774 144.571 L 116.581 138.947 L 116.974 133.079 L 116.939 127.024 L 116.467 120.838 L 115.555 114.580 L 114.204 108.307 L 112.424 102.078 L 110.228 95.951 L 107.634 89.980 L 104.668 84.221 L 101.358 78.724 L 97.739 73.537 L 93.849 68.704 L 89.729 64.266 L 85.426 60.258 L 80.988 56.711 L 76.464 53.649 L 71.908 51.094 L 67.373 49.057 L 62.913 47.549 L 58.581 46.571 L 54.432 46.119 L 50.516 46.185 L 46.884 46.753 L 43.582 47.803 L 40.656 49.309 L 38.146 51.242 L 36.088 53.565 L 34.514 56.240 L 33.452 59.225 L 32.924 62.473 L 32.945 65.938 L 33.527 69.568 L 34.675 73.312 L 36.387 77.119 L 38.655 80.936 L 41.468 84.712 L 44.806 88.396 L 48.645 91.939 L 52.955 95.295 L 57.700 98.420 L 62.842 101.274 L 68.335 103.821 L 74.133 106.027 L 80.185 107.866 L 86.436 109.315 L 92.830 110.357 L 99.309 110.978 L 105.816 111.174 L 112.290 110.942 L 118.673 110.288 L 124.907 109.222 L 130.936 107.759 L 136.706 105.922 L 142.164 103.734 L 147.264 101.229 L 151.960 98.439 L 156.213 95.405 L 159.986 92.169 L 163.250 88.775 L 165.980 85.272 L 168.155 81.710 L 169.763 78.139 L 170.795 74.610 L 171.251 71.176 L 171.134 67.887 L 170.454 64.793 L 169.228 61.941 L 167.478 59.379 L 165.229 57.147 L 162.515 55.286 L 159.371 53.830 L 155.839 52.811 L 151.962 52.255 L 147.789 52.183 L 143.369 52.611 L 138.755 53.548 L 134.000 55.000 L 129.160 56.965 L 124.288 59.435 L 119.440 62.398 L 114.668 65.835 L 110.025 69.722 L 105.560 74.029 L 101.319 78.721 L 97.347 83.760 L 93.682 89.102 L 90.361 94.701 L 87.414 100.505 L 84.867 106.461 L 82.741 112.515 L 81.051 118.610 L 79.807 124.688 L 79.013 130.691 L 78.668 136.562 L 78.764 142.243 L 79.289 147.680 L 80.223 152.819 L 81.545 157.612 L 83.226 162.010 L 85.233 165.971 L 87.530 169.456 L 90.077 172.431 L 92.830 174.868 L 95.744 176.742 L 98.770 178.037 L 101.859 178.739 L 104.960 178.844 L 108.025 178.351 L 111.001 177.267 L 113.841 175.604 L 116.497 173.379 L 118.923 170.616 L 121.077 167.345 L 122.919 163.600 L 124.414 159.419 L 125.530 154.844 L 126.241 149.924 L 126.524 144.708 L 126.363 139.248 L 125.746 133.600 L 124.668 127.819 L 123.128 121.963 L 121.132 116.088 L 118.692 110.254 L 115.824 104.514 L 112.550 98.923 L 108.899 93.534 L 104.902 88.397 L 100.597 83.556 L 96.024 79.054 L 91.229 74.931 L 86.259 71.217 L 81.166 67.943 L 76.001 65.131 L 70.819 62.799 L 65.677 60.959 L 60.628 59.616 L 55.729 58.772 L 51.034 58.420 L 46.595 58.550 L 42.464 59.144 L 38.687 60.182 L 35.310 61.635 L 32.374 63.473 L 29.914 65.660 L 27.963 68.156 L 26.548 70.918 L 25.689 73.901 L 25.402 77.056 L 25.699 80.333 L 26.581 83.684 L 28.047 87.055 L 30.090 90.396 L 32.695 93.658 L 35.842 96.791 L 39.505 99.749 L 43.654 102.487 L 48.254 104.964 L 53.263 107.143 L 58.636 108.990 L 64.326 110.475 L 70.280 111.576 L 76.445 112.271 L 82.764 112.547 L 89.178 112.396 L 95.631 111.814 L 102.061 110.805 L 108.412 109.376 L 114.625 107.542 L 120.645 105.321 L 126.418 102.738 L 131.894 99.822 L 137.025 96.607 L 141.769 93.131 L 146.085 89.436 L 149.940 85.566 L 153.304 81.570 L 156.154 77.497 L 158.472 73.398 L 160.244 69.327 L 161.465 65.335 L 162.134 61.476 L 162.257 57.802 L 161.844 54.362 L 160.913 51.206 L 159.485 48.378 L 157.589 45.921 L 155.256 43.874 L 152.523 42.271 L 149.431 41.144 L 146.024 40.516 L 142.349 40.407 L 138.456 40.833 L 134.396 41.801 L 130.221 43.314 L 125.985 45.370 L 121.741 47.958 L 117.541 51.065 L 113.437 54.669 L 109.478 58.745 L 105.711 63.261 L 102.180 68.180 L 98.926 73.462 L 95.986 79.062 L 93.391 84.930 L 91.170 91.016 L 89.346 97.264 L 87.934 103.619 L 86.949 110.022 L 86.395 116.414 L 86.274 122.738 L 86.581 128.934 L 87.305 134.946 L 88.431 140.718 L 89.937 146.197 L 91.797 151.332 L 93.980 156.078 L 96.452 160.391 L 99.174 164.233 L 102.103 167.571 L 105.195 170.375 L 108.402 172.623 L 111.674 174.299 L 114.962 175.390 L 118.215 175.891 L 121.382 175.803 L 124.412 175.133 L 127.258 173.894 L 129.871 172.104 L 132.208 169.786 L 134.227 166.971 L 135.890 163.692 L 137.163 159.988 L 138.015 155.902 L 138.423 151.480 L 138.367 146.772 L 137.832 141.830 L 136.809 136.707 L 135.295 131.459 L 133.293 126.141 L 130.811 120.810 L 127.863 115.521 L 124.469 110.328 L 120.655 105.283 L 116.449 100.437 L 111.888 95.836 L 107.012 91.524 L 101.863 87.542 L 96.489 83.924 L 90.940 80.701 L 85.270 77.899 L 79.533 75.539 L 73.785 73.634 L 68.083 72.195 L 62.485 71.225 L 57.046 70.721 L 51.822 70.676 L 46.867 71.077 L 42.232 71.904 L 37.965 73.133 L 34.111 74.736 L 30.711 76.681 L 27.802 78.928 L 25.415 81.439 L 23.576 84.169 L 22.307 87.071 L 21.623 90.099 L 21.533 93.201 L 22.040 96.328 L 23.142 99.429 L 24.830 102.455 L 27.089 105.355 L 29.898 108.084 L 33.232 110.595 L 37.059 112.847 L 41.343 114.801 L 46.043 116.421 L 51.114 117.677 L 56.507 118.541 L 62.171 118.994 L 68.052 119.018 L 74.093 118.603 L 80.237 117.743 L 86.426 116.439 L 92.601 114.698 L 98.706 112.530 L 104.684 109.953 L 110.479 106.990 L 116.041 103.668 L 121.319 100.020 L 126.269 96.082 L 130.848 91.896 L 135.018 87.506 L 138.748 82.960 L 142.010 78.307 L 144.781 73.600 L 147.046 68.893 L 148.794 64.239 L 150.019 59.693 L 150.723 55.308 L 150.913 51.138 L 150.602 47.235 L 149.807 43.645 L 148.551 40.416 L 146.864 37.590 L 144.778 35.206 L 142.330 33.298 L 139.562 31.896 L 136.516 31.023 L 133.241 30.700 L 129.785 30.939 L 126.198 31.748 L 122.533 33.128 L 118.841 35.075 L 115.174 37.579 L 111.583 40.624 L 108.116 44.187 L 104.820 48.240 L 101.742 52.752 L 98.920 57.684 L 96.395 62.995 L 94.198 68.638 L 92.360 74.563 L 90.905 80.718 L 89.851 87.047 L 89.214 93.494 L 89.000 100.000 L 89.214 106.506 L 89.851 112.953 L 90.905 119.282 L 92.360 125.437 L 94.198 131.362 L 96.395 137.005 L 98.920 142.316 L 101.742 147.248 L 104.820 151.760 L 108.116 155.813 L 111.583 159.376 L 115.174 162.421 L 118.841 164.925 L 122.533 166.872 L 126.198 168.252 L 129.785 169.061 L 133.241 169.300 L 136.516 168.977 L 139.562 168.104 L 142.330 166.702 L 144.778 164.794 L 146.864 162.410 L 148.551 159.584 L 149.807 156.355 L 150.602 152.765 L 150.913 148.862 L 150.723 144.692 L 150.019 140.307 L 148.794 135.761 L 147.046 131.107 L 144.781 126.400 L 142.010 121.693 L 138.748 117.040 L 135.018 112.494 L 130.848 108.104 L 126.269 103.918 L 121.319 99.980 L 116.041 96.332 L 110.479 93.010 L 104.684 90.047 L 98.706 87.470 L 92.601 85.302 L 86.426 83.561 L 80.237 82.257 L 74.093 81.397 L 68.052 80.982 L 62.171 81.006 L 56.507 81.459 L 51.114 82.323 L 46.043 83.579 L 41.343 85.199 L 37.059 87.153 L 33.232 89.405 L 29.898 91.916 L 27.089 94.645 L 24.830 97.545 L 23.142 100.571 L 22.040 103.672 L 21.533 106.799 L 21.623 109.901 L 22.307 112.929 L 23.576 115.831 L 25.415 118.561 L 27.802 121.072 L 30.711 123.319 L 34.111 125.264 L 37.965 126.867 L 42.232 128.096 L 46.867 128.923 L 51.822 129.324 L 57.046 129.279 L 62.485 128.775 L 68.083 127.805 L 73.785 126.366 L 79.533 124.461 L 85.270 122.101 L 90.940 119.299 L 96.489 116.076 L 101.863 112.458 L 107.012 108.476 L 111.888 104.164 L 116.449 99.563 L 120.655 94.717 L 124.469 89.672 L 127.863 84.479 L 130.811 79.190 L 133.293 73.859 L 135.295 68.541 L 136.809 63.293 L 137.832 58.170 L 138.367 53.228 L 138.423 48.520 L 138.015 44.098 L 137.163 40.012 L 135.890 36.308 L 134.227 33.029 L 132.208 30.214 L 129.871 27.896 L 127.258 26.106 L 124.412 24.867 L 121.382 24.197 L 118.215 24.109 L 114.962 24.610 L 111.674 25.701 L 108.402 27.377 L 105.195 29.625 L 102.103 32.429 L 99.174 35.767 L 96.452 39.609 L 93.980 43.922 L 91.797 48.668 L 89.937 53.803 L 88.431 59.282 L 87.305 65.054 L 86.581 71.066 L 86.274 77.262 L 86.395 83.586 L 86.949 89.978 L 87.934 96.381 L 89.346 102.736 L 91.170 108.984 L 93.391 115.070 L 95.986 120.938 L 98.926 126.538 L 102.180 131.820 L 105.711 136.739 L 109.478 141.255 L 113.437 145.331 L 117.541 148.935 L 121.741 152.042 L 125.985 154.630 L 130.221 156.686 L 134.396 158.199 L 138.456 159.167 L 142.349 159.593 L 146.024 159.484 L 149.431 158.856 L 152.523 157.729 L 155.256 156.126 L 157.589 154.079 L 159.485 151.622 L 160.913 148.794 L 161.844 145.638 L 162.257 142.198 L 162.134 138.524 L 161.465 134.665 L 160.244 130.673 L 158.472 126.602 L 156.154 122.503 L 153.304 118.430 L 149.940 114.434 L 146.085 110.564 L 141.769 106.869 L 137.025 103.393 L 131.894 100.178 L 126.418 97.262 L 120.645 94.679 L 114.625 92.458 L 108.412 90.624 L 102.061 89.195 L 95.631 88.186 L 89.178 87.604 L 82.764 87.453 L 76.445 87.729 L 70.280 88.424 L 64.326 89.525 L 58.636 91.010 L 53.263 92.857 L 48.254 95.036 L 43.654 97.513 L 39.505 100.251 L 35.842 103.209 L 32.695 106.342 L 30.090 109.604 L 28.047 112.945 L 26.581 116.316 L 25.699 119.667 L 25.402 122.944 L 25.689 126.099 L 26.548 129.082 L 27.963 131.844 L 29.914 134.340 L 32.374 136.527 L 35.310 138.365 L 38.687 139.818 L 42.464 140.856 L 46.595 141.450 L 51.034 141.580 L 55.729 141.228 L 60.628 140.384 L 65.677 139.041 L 70.819 137.201 L 76.001 134.869 L 81.166 132.057 L 86.259 128.783 L 91.229 125.069 L 96.024 120.946 L 100.597 116.444 L 104.902 111.603 L 108.899 106.466 L 112.550 101.077 L 115.824 95.486 L 118.692 89.746 L 121.132 83.912 L 123.128 78.037 L 124.668 72.181 L 125.746 66.400 L 126.363 60.752 L 126.524 55.292 L 126.241 50.076 L 125.530 45.156 L 124.414 40.581 L 122.919 36.400 L 121.077 32.655 L 118.923 29.384 L 116.497 26.621 L 113.841 24.396 L 111.001 22.733 L 108.025 21.649 L 104.960 21.156 L 101.859 21.261 L 98.770 21.963 L 95.744 23.258 L 92.830 25.132 L 90.077 27.569 L 87.530 30.544 L 85.233 34.029 L 83.226 37.990 L 81.545 42.388 L 80.223 47.181 L 79.289 52.320 L 78.764 57.757 L 78.668 63.438 L 79.013 69.309 L 79.807 75.312 L 81.051 81.390 L 82.741 87.485 L 84.867 93.539 L 87.414 99.495 L 90.361 105.299 L 93.682 110.898 L 97.347 116.240 L 101.319 121.279 L 105.560 125.971 L 110.025 130.278 L 114.668 134.165 L 119.440 137.602 L 124.288 140.565 L 129.160 143.035 L 134.000 145.000 L 138.755 146.452 L 143.369 147.389 L 147.789 147.817 L 151.962 147.745 L 155.839 147.189 L 159.371 146.170 L 162.515 144.714 L 165.229 142.853 L 167.478 140.621 L 169.228 138.059 L 170.454 135.207 L 171.134 132.113 L 171.251 128.824 L 170.795 125.390 L 169.763 121.861 L 168.155 118.290 L 165.980 114.728 L 163.250 111.225 L 159.986 107.831 L 156.213 104.595 L 151.960 101.561 L 147.264 98.771 L 142.164 96.266 L 136.706 94.078 L 130.936 92.241 L 124.907 90.778 L 118.673 89.712 L 112.290 89.058 L 105.816 88.826 L 99.309 89.022 L 92.830 89.643 L 86.436 90.685 L 80.185 92.134 L 74.133 93.973 L 68.335 96.179 L 62.842 98.726 L 57.700 101.580 L 52.955 104.705 L 48.645 108.061 L 44.806 111.604 L 41.468 115.288 L 38.655 119.064 L 36.387 122.881 L 34.675 126.688 L 33.527 130.432 L 32.945 134.062 L 32.924 137.527 L 33.452 140.775 L 34.514 143.760 L 36.088 146.435 L 38.146 148.758 L 40.656 150.691 L 43.582 152.197 L 46.884 153.247 L 50.516 153.815 L 54.432 153.881 L 58.581 153.429 L 62.913 152.451 L 67.373 150.943 L 71.908 148.906 L 76.464 146.351 L 80.988 143.289 L 85.426 139.742 L 89.729 135.734 L 93.849 131.296 L 97.739 126.463 L 101.358 121.276 L 104.668 115.779 L 107.634 110.020 L 110.228 104.049 L 112.424 97.922 L 114.204 91.693 L 115.555 85.420 L 116.467 79.162 L 116.939 72.976 L 116.974 66.921 L 116.581 61.053 L 115.774 55.429 L 114.572 50.100 L 113.001 45.118 L 111.089 40.530 L 108.870 36.377 L 106.382 32.699 L 103.666 29.529 L 100.767 26.896 L 97.730 24.824 L 94.605 23.329 L 91.440 22.424 L 88.287 22.115 L 85.197 22.399 L 82.219 23.272 L 79.401 24.721 L 76.792 26.727 L 74.436 29.267 L 72.376 32.312 L 70.649 35.827 L 69.291 39.774 L 68.332 44.110 L 67.797 48.788 L 67.709 53.758 L 68.082 58.969 L 68.926 64.366 L 70.246 69.892 L 72.040 75.492 L 74.302 81.109 L 77.018 86.687 L 80.170 92.170 L 83.735 97.505 L 87.683 102.641 L 91.981 107.530 L 96.591 112.126 L 101.469 116.389 L 106.569 120.282 L 111.844 123.773 L 117.240 126.834 L 122.704 129.443 L 128.180 131.586 L 133.613 133.250 L 138.946 134.432 L 144.123 135.131 L 149.089 135.355 L 153.791 135.115 L 158.179 134.430 L 162.203 133.322 L 165.820 131.820 L 168.988 129.954 L 171.671 127.763 L 173.837 125.285 L 175.460 122.564 L 176.518 119.647 L 176.996 116.580 L 176.885 113.414 L 176.180 110.199 L 174.885 106.986 L 173.008 103.825 L 170.562 100.766 L 167.569 97.856 L 164.055 95.143 L 160.049 92.667 L 155.590 90.471 L 150.716 88.590 L 145.474 87.056 L 139.911 85.897 L 134.080 85.136 L 128.035 84.791 L 121.831 84.874 L 115.528 85.391 L 109.183 86.345 L 102.854 87.731 L 96.601 89.538 L 90.479 91.752 L 84.545 94.351 L 78.851 97.308 L 73.447 100.595 L 68.380 104.174 L 63.692 108.007 L 59.422 112.050 L 55.603 116.257 L 52.263 120.579 L 49.426 124.966 L 47.109 129.364 L 45.324 133.721 L 44.075 137.982 L 43.364 142.095 L 43.184 146.007 L 43.523 149.668 L 44.364 153.029 L 45.683 156.044 L 47.454 158.671 L 49.644 160.871 L 52.215 162.609 L 55.127 163.856 L 58.336 164.588 L 61.794 164.784 L 65.454 164.431 L 69.263 163.521 L 73.170 162.051 L 77.122 160.027 L 81.067 157.456 L 84.953 154.356 L 88.730 150.747 L 92.350 146.657 L 95.767 142.117 L 98.939 137.165 L 101.825 131.842 L 104.391 126.194 L 106.607 120.270 L 108.445 114.122 L 109.886 107.806 L 110.913 101.379 L 111.517 94.897 L 111.692 88.421 L 111.440 82.010 L 110.768 75.721 L 109.687 69.612 L 108.215 63.738 L 106.375 58.153 L 104.194 52.906 L 101.705 48.044 L 98.944 43.610 L 95.951 39.640 L 92.769 36.170 L 89.444 33.226 L 86.026 30.831 L 82.562 29.002 L 79.106 27.750 L 75.707 27.080 L 72.417 26.990 L 69.286 27.474 L 66.363 28.519 L 63.696 30.105 L 61.327 32.209 L 59.299 34.801 L 57.649 37.847 L 56.410 41.308 L 55.612 45.143 L 55.278 49.303 L 55.427 53.741 L 56.073 58.405 L 57.224 63.242 L 58.881 68.196 L 61.040 73.213 L 63.693 78.238 L 66.824 83.216 L 70.411 88.094 L 74.429 92.821 L 78.846 97.347 L 83.626 101.628 L 88.727 105.621 L 94.106 109.288 L 99.713 112.593 L 105.498 115.509 L 111.407 118.011 L 117.384 120.080 L 123.371 121.703 L 129.313 122.872 L 135.150 123.585 L 140.826 123.846 L 146.285 123.664 L 151.473 123.054 L 156.339 122.036 L 160.834 120.635 L 164.913 118.880 L 168.536 116.806 L 171.665 114.451 L 174.270 111.857 L 176.323 109.067 L 177.805 106.128 L 178.701 103.089 L 179.000 100.000" />
</svg>