<svg xmlns="http://www.w3.org/2000/svg" viewBox="0 0 200 200" width="100%" height="100%">
    <path fill="none" stroke="black" stroke-width="1" d="M 100.000 100.000 L 100.119 100.015 L 100.232 100.060 L 100.335 100.133 L 100.421 100.231 L 100.485 100.353 L 100.525 100.493 L 100.535 100.647 L 100.514 100.811 L 100.460 100.977 L 100.371 101.141 L 100.247 101.297 L 100.090 101.437 L 99.902 101.557 L 99.685 101.650 L 99.444 101.712 L 99.183 101.737 L 98.907 101.722 L 98.623 101.664 L 98.338 101.561 L 98.058 101.411 L 97.792 101.214 L 97.545 100.972 L 97.327 100.686 L 97.143 100.361 L 97.000 100.000 L 96.905 99.609 L 96.862 99.194 L 96.876 98.763 L 96.950 98.323 L 97.088 97.884 L 97.288 97.453 L 97.552 97.041 L 97.878 96.656 L 98.263 96.308 L 98.702 96.006 L 99.191 95.757 L 99.721 95.569 L 100.286 95.449 L 100.877 95.403 L 101.483 95.435 L 102.095 95.548 L 102.701 95.745 L 103.289 96.024 L 103.849 96.386 L 104.369 96.826 L 104.837 97.341 L 105.244 97.924 L 105.579 98.568 L 105.834 99.263 L 106.000 100.000 L 106.072 100.767 L 106.044 101.552 L 105.913 102.341 L 105.678 103.122 L 105.340 103.879 L 104.899 104.600 L 104.360 105.270 L 103.729 105.877 L 103.015 106.406 L 102.225 106.848 L 101.372 107.190 L 100.467 107.425 L 99.525 107.545 L 98.561 107.544 L 97.590 107.418 L 96.628 107.166 L 95.692 106.788 L 94.799 106.287 L 93.964 105.668 L 93.204 104.937 L 92.534 104.105 L 91.967 103.181 L 91.515 102.179 L 91.190 101.113 L 91.000 100.000 L 90.952 98.857 L 91.050 97.702 L 91.297 96.554 L 91.693 95.433 L 92.233 94.357 L 92.914 93.346 L 93.728 92.418 L 94.663 91.590 L 95.708 90.879 L 96.848 90.299 L 98.066 89.863 L 99.344 89.581 L 100.663 89.461 L 102.001 89.509 L 103.337 89.729 L 104.650 90.119 L 105.916 90.679 L 107.114 91.401 L 108.223 92.278 L 109.223 93.299 L 110.095 94.450 L 110.823 95.715 L 111.391 97.075 L 111.786 98.511 L 112.000 100.000 L 112.024 101.519 L 111.855 103.044 L 111.492 104.550 L 110.936 106.012 L 110.194 107.406 L 109.272 108.707 L 108.185 109.893 L 106.944 110.942 L 105.569 111.835 L 104.079 112.554 L 102.496 113.084 L 100.844 113.413 L 99.149 113.533 L 97.437 113.438 L 95.736 113.125 L 94.073 112.595 L 92.477 111.854 L 90.974 110.910 L 89.590 109.775 L 88.350 108.464 L 87.276 106.995 L 86.388 105.389 L 85.704 103.671 L 85.237 101.865 L 85.000 100.000 L 84.999 98.105 L 85.239 96.210 L 85.719 94.346 L 86.435 92.542 L 87.379 90.831 L 88.541 89.239 L 89.903 87.795 L 91.448 86.525 L 93.153 85.450 L 94.994 84.593 L 96.942 83.969 L 98.968 83.592 L 101.040 83.473 L 103.126 83.615 L 105.191 84.022 L 107.204 84.690 L 109.130 85.613 L 110.938 86.778 L 112.597 88.171 L 114.077 89.773 L 115.353 91.560 L 116.401 93.506 L 117.202 95.583 L 117.739 97.759 L 118.000 100.000 L 117.977 102.271 L 117.667 104.536 L 117.071 106.759 L 116.194 108.903 L 115.048 110.933 L 113.646 112.815 L 112.009 114.516 L 110.159 116.008 L 108.124 117.264 L 105.933 118.260 L 103.620 118.978 L 101.221 119.402 L 98.772 119.521 L 96.312 119.331 L 93.881 118.831 L 91.518 118.024 L 89.262 116.920 L 87.150 115.534 L 85.217 113.883 L 83.496 111.991 L 82.018 109.886 L 80.809 107.598 L 79.892 105.163 L 79.285 102.617 L 79.000 100.000 L 79.047 97.353 L 79.427 94.718 L 80.140 92.137 L 81.177 89.652 L 82.525 87.304 L 84.167 85.132 L 86.079 83.172 L 88.233 81.459 L 90.599 80.021 L 93.140 78.887 L 95.818 78.075 L 98.591 77.604 L 101.417 77.485 L 104.250 77.722 L 107.046 78.316 L 109.759 79.261 L 112.345 80.547 L 114.763 82.155 L 116.970 84.064 L 118.931 86.246 L 120.611 88.669 L 121.980 91.298 L 123.014 94.091 L 123.692 97.007 L 124.000 100.000 L 123.930 103.023 L 123.478 106.028 L 122.649 108.968 L 121.452 111.793 L 119.902 114.460 L 118.020 116.922 L 115.834 119.140 L 113.374 121.074 L 110.679 122.693 L 107.787 123.967 L 104.744 124.872 L 101.597 125.390 L 98.395 125.510 L 95.188 125.225 L 92.027 124.537 L 88.964 123.453 L 86.047 121.986 L 83.325 120.157 L 80.843 117.990 L 78.642 115.518 L 76.760 112.776 L 75.231 109.807 L 74.081 106.655 L 73.332 103.369 L 73.000 100.000 L 73.094 96.601 L 73.616 93.226 L 74.561 89.928 L 75.919 86.761 L 77.671 83.777 L 79.793 81.024 L 82.254 78.549 L 85.018 76.393 L 88.044 74.592 L 91.286 73.180 L 94.693 72.182 L 98.214 71.616 L 101.793 71.496 L 105.374 71.828 L 108.900 72.610 L 112.314 73.832 L 115.560 75.481 L 118.587 77.532 L 121.344 79.956 L 123.785 82.719 L 125.869 85.779 L 127.559 89.089 L 128.825 92.599 L 129.644 96.255 L 130.000 100.000 L 129.882 103.775 L 129.290 107.520 L 128.228 111.176 L 126.710 114.684 L 124.756 117.986 L 122.394 121.029 L 119.658 123.763 L 116.589 126.140 L 113.233 128.122 L 109.641 129.673 L 105.869 130.765 L 101.974 131.378 L 98.018 131.498 L 94.064 131.119 L 90.173 130.244 L 86.409 128.882 L 82.832 127.052 L 79.500 124.780 L 76.469 122.097 L 73.788 119.044 L 71.503 115.667 L 69.652 112.016 L 68.269 108.147 L 67.379 104.121 L 67.000 100.000 L 67.141 95.849 L 67.804 91.734 L 68.983 87.719 L 70.661 83.871 L 72.817 80.250 L 75.419 76.917 L 78.430 73.926 L 81.803 71.327 L 85.489 69.163 L 89.432 67.474 L 93.569 66.288 L 97.837 65.628 L 102.170 65.508 L 106.498 65.934 L 110.754 66.903 L 114.868 68.403 L 118.775 70.415 L 122.412 72.909 L 125.718 75.849 L 128.639 79.192 L 131.126 82.888 L 133.137 86.880 L 134.637 91.107 L 135.597 95.503 L 136.000 100.000 L 135.835 104.527 L 135.101 109.013 L 133.807 113.385 L 131.968 117.574 L 129.610 121.513 L 126.768 125.137 L 123.483 128.386 L 119.804 131.206 L 115.788 133.551 L 111.495 135.379 L 106.993 136.659 L 102.351 137.366 L 97.642 137.486 L 92.939 137.013 L 88.319 135.950 L 83.854 134.311 L 79.617 132.118 L 75.676 129.403 L 72.095 126.204 L 68.934 122.571 L 66.245 118.557 L 64.073 114.224 L 62.458 109.639 L 61.427 104.873 L 61.000 100.000 L 61.188 95.097 L 61.993 90.241 L 63.404 85.511 L 65.403 80.980 L 67.963 76.724 L 71.045 72.810 L 74.605 69.303 L 78.588 66.261 L 82.935 63.735 L 87.578 61.768 L 92.445 60.394 L 97.461 59.640 L 102.547 59.520 L 107.623 60.041 L 112.608 61.197 L 117.423 62.974 L 121.990 65.349 L 126.236 68.286 L 130.092 71.742 L 133.493 75.666 L 136.384 79.998 L 138.716 84.671 L 140.448 89.615 L 141.550 94.751 L 142.000 100.000 L 141.788 105.279 L 140.913 110.505 L 139.385 115.594 L 137.226 120.465 L 134.464 125.040 L 131.142 129.244 L 127.307 133.009 L 123.019 136.272 L 118.343 138.980 L 113.350 141.086 L 108.117 142.553 L 102.728 143.354 L 97.265 143.474 L 91.815 142.906 L 86.465 141.656 L 81.300 139.740 L 76.402 137.184 L 71.851 134.026 L 67.721 130.312 L 64.080 126.098 L 60.987 121.448 L 58.495 116.433 L 56.646 111.131 L 55.474 105.625 L 55.000 100.000 L 55.236 94.345 L 56.181 88.749 L 57.825 83.302 L 60.146 78.090 L 63.109 73.197 L 66.672 68.703 L 70.780 64.680 L 75.373 61.195 L 80.380 58.306 L 85.723 56.061 L 91.320 54.500 L 97.084 53.652 L 102.924 53.532 L 108.747 54.147 L 114.462 55.491 L 119.978 57.546 L 125.205 60.283 L 130.061 63.663 L 134.466 67.635 L 138.347 72.139 L 141.642 77.107 L 144.295 82.463 L 146.260 88.123 L 147.502 93.999 L 148.000 100.000 L 147.741 106.031 L 146.724 111.997 L 144.964 117.803 L 142.483 123.355 L 139.318 128.566 L 135.515 133.351 L 131.132 137.632 L 126.234 141.338 L 120.897 144.409 L 115.204 146.792 L 109.242 148.446 L 103.104 149.342 L 96.888 149.462 L 90.691 148.800 L 84.611 147.363 L 78.745 145.169 L 73.187 142.250 L 68.027 138.649 L 63.347 134.419 L 59.226 129.624 L 55.729 124.338 L 52.916 118.642 L 50.835 112.623 L 49.521 106.377 L 49.000 100.000 L 49.283 93.593 L 50.370 87.257 L 52.247 81.093 L 54.888 75.199 L 58.255 69.670 L 62.298 64.595 L 66.956 60.057 L 72.158 56.129 L 77.825 52.877 L 83.869 50.355 L 90.196 48.607 L 96.707 47.663 L 103.300 47.544 L 109.871 48.253 L 116.316 49.784 L 122.532 52.117 L 128.420 55.217 L 133.885 59.040 L 138.839 63.527 L 143.202 68.612 L 146.900 74.217 L 149.873 80.254 L 152.071 86.630 L 153.455 93.247 L 154.000 100.000 L 153.693 106.783 L 152.536 113.489 L 150.543 120.011 L 147.741 126.246 L 144.172 132.093 L 139.889 137.458 L 134.956 142.255 L 129.449 146.404 L 123.452 149.838 L 117.058 152.498 L 110.366 154.340 L 103.481 155.331 L 96.511 155.450 L 89.567 154.694 L 82.757 153.069 L 76.190 150.598 L 69.972 147.316 L 64.202 143.272 L 58.974 138.526 L 54.371 133.151 L 50.471 127.229 L 47.337 120.851 L 45.023 114.116 L 43.569 107.129 L 43.000 100.000 L 43.330 92.841 L 44.558 85.765 L 46.668 78.884 L 49.630 72.309 L 53.401 66.144 L 57.924 60.488 L 63.131 55.434 L 68.943 51.063 L 75.271 47.448 L 82.015 44.649 L 89.072 42.713 L 96.331 41.675 L 103.677 41.556 L 110.996 42.359 L 118.170 44.078 L 125.087 46.688 L 131.635 50.151 L 137.710 54.416 L 143.213 59.420 L 148.056 65.086 L 152.158 71.326 L 155.452 78.045 L 157.883 85.138 L 159.408 92.495 L 160.000 100.000 L 159.646 107.535 L 158.347 114.981 L 156.121 122.220 L 152.999 129.136 L 149.026 135.620 L 144.263 141.566 L 138.781 146.878 L 132.664 151.470 L 126.007 155.267 L 118.912 158.205 L 111.490 160.234 L 103.858 161.319 L 96.135 161.439 L 88.442 160.587 L 80.903 158.775 L 73.636 156.027 L 66.757 152.382 L 60.378 147.895 L 54.600 142.634 L 49.517 136.678 L 45.213 130.119 L 41.759 123.059 L 39.212 115.608 L 37.616 107.881 L 37.000 100.000 L 37.378 92.089 L 38.747 84.273 L 41.089 76.676 L 44.372 69.418 L 48.547 62.617 L 53.550 56.381 L 59.307 50.810 L 65.729 45.997 L 72.716 42.019 L 80.161 38.942 L 87.948 36.819 L 95.954 35.687 L 104.054 35.567 L 112.120 36.466 L 120.024 38.372 L 127.642 41.259 L 134.850 45.085 L 141.535 49.793 L 147.587 55.313 L 152.910 61.559 L 157.416 68.435 L 161.031 75.836 L 163.694 83.646 L 165.361 91.743 L 166.000 100.000 L 165.599 108.287 L 164.159 116.473 L 161.700 124.429 L 158.257 132.027 L 153.881 139.146 L 148.637 145.673 L 142.605 151.501 L 135.879 156.536 L 128.561 160.696 L 120.766 163.911 L 112.615 166.128 L 104.235 167.307 L 95.758 167.427 L 87.318 166.481 L 79.049 164.482 L 71.081 161.456 L 63.542 157.448 L 56.553 152.518 L 50.226 146.741 L 44.663 140.205 L 39.955 133.010 L 36.180 125.268 L 33.400 117.100 L 31.663 108.633 L 31.000 100.000 L 31.425 91.337 L 32.935 82.781 L 35.511 74.467 L 39.114 66.528 L 43.692 59.090 L 49.176 52.273 L 55.482 46.187 L 62.514 40.931 L 70.161 36.590 L 78.307 33.236 L 86.823 30.926 L 95.577 29.699 L 104.430 29.579 L 113.244 30.572 L 121.878 32.665 L 130.196 35.830 L 138.065 40.019 L 145.359 45.170 L 151.961 51.205 L 157.764 58.032 L 162.673 65.545 L 166.609 73.628 L 169.506 82.154 L 171.313 90.991 L 172.000 100.000 L 171.551 109.039 L 169.970 117.965 L 167.279 126.637 L 163.515 134.918 L 158.735 142.673 L 153.011 149.780 L 146.430 156.124 L 139.094 161.602 L 131.116 166.125 L 122.620 169.617 L 113.739 172.021 L 104.611 173.295 L 95.381 173.415 L 86.194 172.375 L 77.195 170.188 L 68.526 166.885 L 60.327 162.514 L 52.729 157.141 L 45.852 150.848 L 39.809 143.731 L 34.698 135.900 L 30.601 127.477 L 27.589 118.592 L 25.710 109.385 L 25.000 100.000 L 25.472 90.585 L 27.124 81.289 L 29.932 72.258 L 33.856 63.637 L 38.838 55.563 L 44.802 48.166 L 51.658 41.564 L 59.299 35.865 L 67.607 31.161 L 76.453 27.529 L 85.699 25.032 L 95.200 23.711 L 104.807 23.591 L 114.368 24.678 L 123.733 26.959 L 132.751 30.401 L 141.280 34.953 L 149.184 40.547 L 156.335 47.098 L 162.618 54.505 L 167.931 62.654 L 172.188 71.419 L 175.317 80.662 L 177.266 90.239 L 178.000 100.000 L 177.504 109.791 L 175.782 119.457 L 172.857 128.846 L 168.773 137.808 L 163.589 146.200 L 157.384 153.888 L 150.255 160.747 L 142.309 166.668 L 133.671 171.554 L 124.474 175.324 L 114.863 177.915 L 104.988 179.283 L 95.004 179.403 L 85.069 178.269 L 75.340 175.894 L 65.972 172.314 L 57.112 167.580 L 48.904 161.764 L 41.478 154.955 L 34.955 147.258 L 29.440 138.791 L 25.023 129.686 L 21.777 120.084 L 19.758 110.137 L 19.000 100.000 L 19.520 89.833 L 21.312 79.796 L 24.353 70.049 L 28.599 60.747 L 33.984 52.037 L 40.429 44.059 L 47.833 36.941 L 56.084 30.799 L 65.052 25.732 L 74.599 21.823 L 84.575 19.138 L 94.824 17.723 L 105.184 17.603 L 115.493 18.784 L 125.587 21.253 L 135.306 24.972 L 144.495 29.887 L 153.008 35.924 L 160.709 42.991 L 167.472 50.979 L 173.189 59.764 L 177.767 69.210 L 181.129 79.170 L 183.219 89.487 L 184.000 100.000 L 183.457 110.543 L 181.593 120.950 L 178.436 131.055 L 174.030 140.699 L 168.443 149.727 L 161.758 157.995 L 154.079 165.370 L 145.524 171.734 L 136.225 176.983 L 126.328 181.030 L 115.987 183.809 L 105.365 185.271 L 94.628 185.391 L 83.945 184.162 L 73.486 181.601 L 63.417 177.743 L 53.897 172.646 L 45.080 166.387 L 37.105 159.063 L 30.101 150.785 L 24.182 141.681 L 19.444 131.894 L 15.966 121.576 L 13.805 110.889 L 13.000 100.000 L 13.567 89.081 L 15.501 78.304 L 18.775 67.841 L 23.341 57.856 L 29.130 48.510 L 36.055 39.952 L 44.009 32.318 L 52.869 25.733 L 62.497 20.303 L 72.745 16.117 L 83.450 13.244 L 94.447 11.735 L 105.561 11.615 L 116.617 12.891 L 127.441 15.546 L 137.860 19.543 L 147.710 24.821 L 156.833 31.301 L 165.082 38.884 L 172.326 47.452 L 178.447 56.873 L 183.345 67.001 L 186.940 77.678 L 189.171 88.735" />
</svg>